<?xml version="1.0" encoding="UTF-8"?>
<svg width="330px" height="63px" viewBox="0 0 330 63" version="1.1" xmlns="http://www.w3.org/2000/svg" xmlns:xlink="http://www.w3.org/1999/xlink">
    <!-- Generator: Sketch 41.2 (35397) - http://www.bohemiancoding.com/sketch -->
    <title>image_2_1</title>
    <desc>Created with Sketch.</desc>
    <defs></defs>
    <g id="Page-1" stroke="none" stroke-width="1" fill="none" fill-rule="evenodd" opacity="0.331351902">
        <g id="image_2_1" fill="#FFFFFF">
            <path d="M0.018411803,61.8418085 L45.1915247,61.8418085 C40.2216068,51.6591782 34.2245182,44.0564346 29.6750379,38.7046336 C42.0346801,25.7242557 54.6946349,18.4315118 69.5697763,10.802935 C109.802494,30.5042794 156.979047,29.2694471 159.307233,29.1988361 C164.781065,29.3176693 210.104843,29.7904189 248.940853,10.7865739 C263.785454,18.3867341 276.427085,25.6648391 288.821339,38.6934392 C284.266769,44.0461013 278.265608,51.6514282 273.294672,61.8418085 L330.096497,61.8418085 C311.075007,59.2059496 285.377416,58.6195334 286.294642,57.1289514 C290.64052,50.0807629 295.198145,44.800434 298.43134,41.0692427 C299.714031,39.588994 299.691635,37.5343846 298.377386,36.0756636 C283.622369,19.6775386 268.322718,11.1904346 251.286345,2.54919194 C249.838736,1.81208145 248.048059,1.81810923 246.607577,2.56038638 C213.186355,19.7292052 173.600074,21.0639263 162.261494,21.0639263 C160.423988,21.0639263 159.393764,21.0294819 159.338791,21.0277597 C158.064245,21.069093 157.234568,21.0820096 156.106614,21.0820096 C144.798575,21.0820096 105.310022,19.7472885 71.8999979,2.57416414 C70.4584978,1.8327481 68.6668027,1.82844255 67.2181765,2.56383082 C49.5424934,11.5486566 34.8536476,19.719733 20.1179733,36.0859969 C18.8047422,37.5447179 18.782346,39.5993273 20.0650368,41.0804371 C23.2544577,44.7651285 28.9247656,51.4318451 33.2197438,58.3500059 C34.191942,59.9155046 -0.918156095,60.0971988 0.018411803,61.8418085 Z" id="Fill-26"></path>
        </g>
    </g>
</svg>