<?xml version="1.0" encoding="UTF-8"?>
<svg width="77px" height="19px" viewBox="0 0 77 19" version="1.1" xmlns="http://www.w3.org/2000/svg" xmlns:xlink="http://www.w3.org/1999/xlink">
    <!-- Generator: sketchtool 41.2 (35397) - http://www.bohemiancoding.com/sketch -->
    <title>7ED3A69F-3898-4F33-85A4-91B10ECC8BE6</title>
    <desc>Created with sketchtool.</desc>
    <defs></defs>
    <g id="Page-1" stroke="none" stroke-width="1" fill="none" fill-rule="evenodd">
        <g id="Отправить_02" transform="translate(-69.000000, -35.000000)">
            <g id="menu">
                <g id="Group-6" transform="translate(25.000000, 27.000000)">
                    <g id="name_app_main" transform="translate(44.842393, 8.555811)">
                        <path d="M73.2938034,13.5382655 L70.3232685,6.54027195 L70.2892435,6.54027195 L67.2074703,13.5382655 L73.2938034,13.5382655 Z M67.0706194,13.8472421 L65.4144386,17.5829287 L65.0044869,17.5829287 L70.0757802,6.23074228 L70.5368069,6.23074228 L75.4626868,17.5829287 L75.0782726,17.5829287 L73.4306543,13.8472421 L67.0706194,13.8472421 Z" id="Fill-13" stroke="#FF9800" fill="#FF9800"></path>
                        <path d="M62.2499718,6.23075018 L62.6008869,6.23075018 L62.6008869,13.3508017 C62.566862,16.3534291 61.0371668,17.8544664 58.0113506,17.8544664 C54.9806524,17.8544664 53.4534358,16.3534291 53.4309027,13.3508017 L53.4309027,0.392268425 L53.7818178,0.392268425 L53.7818178,13.3561738 C53.764242,16.1279576 55.1740612,17.5240012 58.0113506,17.5449367 C60.8370731,17.5240012 62.2499718,16.1269305 62.2499718,13.3530138 L62.2499718,6.23075018 Z" id="Fill-10" stroke="#FF9800" fill="#FF9800"></path>
                        <path d="M40.8886628,11.4724511 C40.8886628,15.1826991 42.5955431,17.4327539 45.4629517,17.4327539 C48.3305105,17.4327539 50.1511077,15.0869487 50.1511077,11.3527632 C50.1511077,8.2888302 48.8083619,5.27269343 45.4857101,5.27269343 C42.6638183,5.27269343 40.8886628,7.66645277 40.8886628,11.4724511 L40.8886628,11.4724511 Z M50.6062758,17.4327539 L50.1511077,17.4327539 L50.1511077,13.9379443 C49.6504228,16.2837494 47.9208593,17.839772 45.4629517,17.839772 C42.3452006,17.839772 40.4107363,15.4220751 40.4107363,11.4963887 C40.4107363,7.42707684 42.4134758,4.84181674 45.531302,4.84181674 C48.0346513,4.84181674 49.4456723,6.34988513 50.1511077,8.55206473 L50.1511077,0.389582359 L50.6062758,0.389582359 L50.6062758,17.4327539 Z" id="Fill-8" stroke="#FFFFFF" fill="#FFFFFF"></path>
                        <path d="M28.6928279,8.26484521 C29.2617128,6.30196254 30.9003179,4.88972353 33.0167743,4.88972353 C35.7932995,4.88972353 37.2498373,6.68504304 37.2498373,9.34203692 L37.2498373,17.4327855 L36.7719109,17.4327855 L36.7719109,9.50960007 C36.7719109,7.1876535 35.7477827,5.34453781 33.0623662,5.34453781 C29.8534313,5.34453781 28.7155863,8.14515724 28.7155863,10.634667 L28.7155863,17.4327855 L28.2375847,17.4327855 L28.2375847,5.17697465 L28.6928279,5.17697465 L28.6928279,8.26484521 Z" id="Fill-6" stroke="#FFFFFF" fill="#FFFFFF"></path>
                        <path d="M20.1382248,5.3684675 C17.1796324,5.3684675 15.4955856,8.02554038 15.4046271,10.8978936 L24.667072,10.8978936 C24.667072,8.14514934 23.2332926,5.3684675 20.1382248,5.3684675 M20.1154664,17.8397167 C16.9748818,17.8397167 14.9266255,15.3023318 14.9266255,11.4485372 C14.9266255,7.54670951 17.0203987,4.91365322 20.1382248,4.91365322 C23.5063934,4.91365322 25.1221649,7.9537276 25.1221649,10.873956 L25.1221649,11.3527869 L15.4046271,11.3527869 C15.4046271,14.3927822 16.7700562,17.40884 20.1154664,17.40884 C22.6415741,17.40884 24.3029375,15.3980822 24.5305216,13.171965 L25.008448,13.171965 C24.6443136,15.8050213 22.8919165,17.8397167 20.1154664,17.8397167" id="Fill-4" stroke="#FFFFFF" fill="#FFFFFF"></path>
                        <path d="M11.2878827,5.17698255 C11.1740907,1.77792328 8.94384224,0.509230825 5.82601608,0.509230825 C2.75370673,0.509230825 0.933109563,1.94548643 0.933109563,4.41105856 C0.933109563,7.69035087 4.39223667,8.02555618 6.69083541,8.57604183 C9.21694309,9.17448166 12.0844268,9.58142075 12.0844268,13.0522928 C12.0844268,15.9965378 9.87693679,17.7679197 6.19015054,17.7679197 C2.73094832,17.7679197 1.50220479e-05,16.044492 1.50220479e-05,12.0947891 L1.50220479e-05,11.7836004 L0.455107981,11.7836004 L0.455107981,11.8554131 C0.455107981,15.398098 2.50336429,17.3609806 6.16739213,17.3609806 C9.60383594,17.3609806 11.6292587,15.7571619 11.6292587,13.0522928 C11.6292587,9.84473428 8.6707414,9.55748316 6.39490106,8.98298091 C3.8688685,8.36060348 0.455107981,7.88185161 0.455107981,4.36310437 C0.455107981,1.68217291 2.48060589,0.0304789557 5.80325768,0.0304789557 C9.12590947,0.0304789557 11.6520923,1.53854735 11.7658092,5.17698255 L11.2878827,5.17698255 Z" id="Fill-1" stroke="#FFFFFF" fill="#FFFFFF"></path>
                    </g>
                </g>
            </g>
        </g>
    </g>
</svg>