<?xml version="1.0" encoding="UTF-8" standalone="no"?>
<svg width="28px" height="9px" viewBox="0 0 28 9" version="1.1" xmlns="http://www.w3.org/2000/svg" xmlns:xlink="http://www.w3.org/1999/xlink">
    <!-- Generator: Sketch 3.6.1 (26313) - http://www.bohemiancoding.com/sketch -->
    <title>Group</title>
    <desc>Created with Sketch.</desc>
    <defs></defs>
    <g id="Page-1" stroke="none" stroke-width="1" fill="none" fill-rule="evenodd">
        <g id="Group" transform="translate(0.000000, -4.000000)">
            <rect id="Rectangle-1" x="0" y="0" width="28" height="17"></rect>
            <path d="M7.76378815,4 L5.54883618,10.1263265 L4.65346815,4.91742609 C4.54825942,4.33699147 4.13299322,4 3.67158633,4 L0.0509343904,4 L2.05263158e-05,4.26171771 C0.74304473,4.43902439 1.5874989,4.72315018 2.09922301,5.0266383 C2.41266148,5.21264715 2.50195963,5.37407237 2.60498065,5.81744785 L4.30244092,13 L6.55179953,13 L10.0000205,4 L7.76378815,4" id="Fill-1" fill="#354980"></path>
            <path d="M10.8113903,4 L9,13 L11.1900425,13 L13,4 L10.8113903,4 Z" id="Fill-3" fill="#354980"></path>
            <path d="M19.5745309,10.0220944 C19.5661335,11.8308901 17.9826823,13 15.5637958,13 C14.5317748,12.9892684 13.5382959,12.7784246 13,12.5381216 L13.4177176,10.6310584 C13.9534297,10.8732552 14.625869,11.1970962 15.7849277,11.1789998 C16.4468164,11.1695308 17.1571516,10.9126043 17.1627499,10.3282598 C17.166841,9.9459213 16.8653953,9.67384443 15.9675177,9.24731711 C15.0956936,8.82899628 13.9366349,8.13060251 13.9504153,6.87795469 C13.9652722,5.18362909 15.5674562,4 17.8444479,4 C18.7317748,4 19.4457705,4.18959108 20,4.38633654 L19.5958474,6.23132496 C18.5633959,5.76839447 17.6543217,5.79974749 17.3233774,5.84162166 C16.6580437,5.92705338 16.3531529,6.25952164 16.3456167,6.57136845 C16.3236543,7.59718033 19.5837896,7.72385495 19.5745309,10.0220944 L19.5745309,10.0220944 Z" id="Path" fill="#354980"></path>
            <path d="M25.6638183,11.6550799 L22.8074198,11.6550799 L22.3418091,13 L20,13 L23.3455607,4.65984191 C23.5056273,4.25954217 23.8676532,4 24.2953314,4 L26.1996665,4 L28,13 L25.9310129,13 L25.6638183,11.6550799 Z M25.5242468,10.007836 L24.6147338,6.72913474 L23,10.007836 L25.5242468,10.007836 Z" id="Combined-Shape" fill="#354980"></path>
        </g>
    </g>
</svg>