<?xml version="1.0" encoding="UTF-8"?>
<svg width="285px" height="69px" viewBox="0 0 285 69" version="1.1" xmlns="http://www.w3.org/2000/svg" xmlns:xlink="http://www.w3.org/1999/xlink">
    <!-- Generator: Sketch 41.2 (35397) - http://www.bohemiancoding.com/sketch -->
    <title>image_2_2</title>
    <desc>Created with Sketch.</desc>
    <defs></defs>
    <g id="Page-1" stroke="none" stroke-width="1" fill="none" fill-rule="evenodd" opacity="0.331351902">
        <g id="image_2_2" fill="#FFFFFF">
            <path d="M136.509376,57.4649058 C80.8051584,33.6108809 50.7935216,12.4459752 36.9857085,1 L0,1 C1.28896022,2.19947899 28.4125639,3.44585271 29.9224145,4.7332593 C48.3550653,20.4744977 83.3207098,42.5882888 135.005589,64.5408793 C135.552184,64.7753529 136.142092,64.8896587 136.731132,64.8896587 C137.463969,64.8896587 138.194206,64.7116054 138.831757,64.3576968 C139.068239,64.2309345 139.284798,64.0814576 139.477103,63.9187915 C189.949251,42.3823916 224.467051,21.0724053 242.860721,6.2016502 C245.13286,4.36542884 282.780373,2.62812604 284.56049,1 L237.651173,1 C219.994671,15.352715 186.285936,36.1820305 136.509376,57.4649058 Z" id="Fill-25"></path>
        </g>
    </g>
</svg>