<?xml version="1.0" encoding="UTF-8" standalone="no"?>
<svg width="28px" height="17px" viewBox="0 0 28 17" version="1.1" xmlns="http://www.w3.org/2000/svg" xmlns:xlink="http://www.w3.org/1999/xlink">
    <!-- Generator: Sketch 3.6.1 (26313) - http://www.bohemiancoding.com/sketch -->
    <title>MasterCard_logo</title>
    <desc>Created with Sketch.</desc>
    <defs>
        <path id="path-1" d="M0,16.9976112 L27.9698431,16.9976112 L27.9698431,0.00453864169 L0,0.00453864169 L0,16.9976112 L0,16.9976112 Z"></path>
    </defs>
    <g id="Page-1" stroke="none" stroke-width="1" fill="none" fill-rule="evenodd">
        <g id="MasterCard_logo">
            <rect id="Rectangle-1" x="0" y="0" width="28" height="17"></rect>
            <g id="Group-4">
                <mask id="mask-2" fill="white">
                    <use xlink:href="#path-1"></use>
                </mask>
                <g id="Clip-2"></g>
                <path d="M19.5839608,17 L20.0159608,16.988534 L20.4423137,16.9570422 L20.8601961,16.9026183 L21.2752941,16.828089 L21.6790196,16.7334941 L22.0771373,16.6187939 L22.4667843,16.4841077 L22.8479608,16.3321827 L23.2206667,16.160192 L23.5820784,15.9738689 L23.9321961,15.7674801 L24.2738431,15.5467588 L24.6013725,15.3088384 L24.9176078,15.0565855 L25.222549,14.79 L25.5134118,14.5062155 L25.792902,14.2109649 L26.0554902,13.9013419 L26.3039608,13.5803326 L26.5383137,13.2478173 L26.7557255,12.9009696 L26.9590196,12.5455222 L27.142549,12.1786089 L27.3119608,11.8002295 L27.4616078,11.4132506 L27.5943137,11.0176721 L27.7072549,10.6134941 L27.8004314,10.2035831 L27.8738431,9.78220609 L27.9274902,9.35796253 L27.958549,8.92511944 L27.9698431,8.48654333 L27.958549,8.05083372 L27.9274902,7.62085714 L27.8738431,7.19661358 L27.8004314,6.78096956 L27.7072549,6.37105855 L27.5943137,5.96974707 L27.4616078,5.57416862 L27.3119608,5.19005621 L27.142549,4.81454333 L26.9590196,4.44762998 L26.7557255,4.09504918 L26.5383137,3.74820141 L26.3039608,3.41568618 L26.0554902,3.09750351 L25.792902,2.78792037 L25.5134118,2.49266979 L25.222549,2.21175176 L24.9176078,1.94516628 L24.6013725,1.69291335 L24.2738431,1.45499297 L23.9321961,1.23427166 L23.5820784,1.03074941 L23.2206667,0.84442623 L22.8479608,0.672435597 L22.4667843,0.520510539 L22.0771373,0.385784543 L21.6790196,0.271124122 L21.2752941,0.176529274 L20.8601961,0.102 L20.4423137,0.0475362998 L20.0159608,0.0160046838 L19.5839608,0.00453864169 L19.1547843,0.0160046838 L18.7284314,0.0475362998 L18.310549,0.102 L17.8983137,0.176529274 L17.494549,0.271124122 L17.0964314,0.385784543 L16.7096078,0.520510539 L16.3284314,0.672435597 L15.958549,0.84442623 L15.5999608,1.03074941 L15.2498431,1.23427166 L14.9110196,1.45499297 L14.5834902,1.69291335 L14.2672549,1.94516628 L13.9651373,2.21175176 L13.6743137,2.49266979 L13.3976078,2.78792037 L13.1350196,3.09750351 L12.886549,3.41568618 L12.6550196,3.74820141 L12.4376078,4.09504918 L12.2371373,4.44762998 L12.0507843,4.81454333 L11.8841961,5.19005621 L11.734549,5.57416862 L11.6046667,5.96974707 L11.4917255,6.37105855 L11.3985882,6.78096956 L11.3251373,7.19661358 L11.2714902,7.62085714 L11.2404314,8.05083372 L11.2291373,8.48654333 L11.2404314,8.92511944 L11.2714902,9.35796253 L11.3251373,9.78220609 L11.3985882,10.2035831 L11.4917255,10.6134941 L11.6046667,11.0176721 L11.734549,11.4132506 L11.8841961,11.8002295 L12.0507843,12.1786089 L12.2371373,12.5455222 L12.4376078,12.9009696 L12.6550196,13.2478173 L12.886549,13.5803326 L13.1350196,13.9013419 L13.3976078,14.2109649 L13.6743137,14.5062155 L13.9651373,14.79 L14.2672549,15.0565855 L14.5834902,15.3088384 L14.9110196,15.5467588 L15.2498431,15.7674801 L15.5999608,15.9738689 L15.958549,16.160192 L16.3284314,16.3321827 L16.7096078,16.4841077 L17.0964314,16.6187939 L17.494549,16.7334941 L17.8983137,16.828089 L18.310549,16.9026183 L18.7284314,16.9570422 L19.1547843,16.988534 L19.5839608,17" id="Fill-1" fill="#F1AC3D" mask="url(#mask-2)"></path>
                <path d="M8.38584314,17 L8.81501961,16.988534 L9.24137255,16.9570422 L9.6592549,16.9026183 L10.0714902,16.828089 L10.4752549,16.7334941 L10.8733725,16.6187939 L11.2601961,16.4841077 L11.6413725,16.3321827 L12.0112549,16.160192 L12.3698431,15.9738689 L12.7199608,15.7674801 L13.0587843,15.5467588 L13.3863137,15.3088384 L13.702549,15.0565855 L14.0046667,14.79 L14.2954902,14.5062155 L14.5721961,14.2109649 L14.8347843,13.9013419 L15.0832549,13.5803326 L15.3147843,13.2478173 L15.5321961,12.9009696 L15.7326667,12.5455222 L15.9190196,12.1786089 L16.0856078,11.8002295 L16.2352549,11.4132506 L16.3651373,11.0176721 L16.4780784,10.6134941 L16.5712549,10.2035831 L16.6446667,9.78220609 L16.6983137,9.35796253 L16.7293725,8.92511944 L16.7406667,8.48654333 L16.7293725,8.05083372 L16.6983137,7.62085714 L16.6446667,7.19661358 L16.5712549,6.78096956 L16.4780784,6.37105855 L16.3651373,5.96974707 L16.2352549,5.57416862 L16.0856078,5.19005621 L15.9190196,4.81454333 L15.7326667,4.44762998 L15.5321961,4.09504918 L15.3147843,3.74820141 L15.0832549,3.41568618 L14.8347843,3.09750351 L14.5721961,2.78792037 L14.2954902,2.49266979 L14.0046667,2.21175176 L13.702549,1.94516628 L13.3863137,1.69291335 L13.0587843,1.45499297 L12.7199608,1.23427166 L12.3698431,1.03074941 L12.0112549,0.84442623 L11.6413725,0.672435597 L11.2601961,0.520510539 L10.8733725,0.385784543 L10.4752549,0.271124122 L10.0714902,0.176529274 L9.6592549,0.102 L9.24137255,0.0475362998 L8.81501961,0.0160046838 L8.38584314,0.00453864169 L7.95384314,0.0160046838 L7.5274902,0.0475362998 L7.10960784,0.102 L6.69454902,0.176529274 L6.29078431,0.271124122 L5.89270588,0.385784543 L5.50301961,0.520510539 L5.12184314,0.672435597 L4.74913725,0.84442623 L4.38772549,1.03074941 L4.03760784,1.23427166 L3.69596078,1.45499297 L3.36843137,1.69291335 L3.05219608,1.94516628 L2.7472549,2.21175176 L2.45643137,2.49266979 L2.17690196,2.78792037 L1.91431373,3.09750351 L1.66584314,3.41568618 L1.4314902,3.74820141 L1.21407843,4.09504918 L1.01078431,4.44762998 L0.827254902,4.81454333 L0.657843137,5.19005621 L0.508196078,5.57416862 L0.375529412,5.96974707 L0.26254902,6.37105855 L0.169372549,6.78096956 L0.0959607843,7.19661358 L0.0423137255,7.62085714 L0.011254902,8.05083372 L0,8.48654333 L0.011254902,8.92511944 L0.0423137255,9.35796253 L0.0959607843,9.78220609 L0.169372549,10.2035831 L0.26254902,10.6134941 L0.375529412,11.0176721 L0.508196078,11.4132506 L0.657843137,11.8002295 L0.827254902,12.1786089 L1.01078431,12.5455222 L1.21407843,12.9009696 L1.4314902,13.2478173 L1.66584314,13.5803326 L1.91431373,13.9013419 L2.17690196,14.2109649 L2.45643137,14.5062155 L2.7472549,14.79 L3.05219608,15.0565855 L3.36843137,15.3088384 L3.69596078,15.5467588 L4.03760784,15.7674801 L4.38772549,15.9738689 L4.74913725,16.160192 L5.12184314,16.3321827 L5.50301961,16.4841077 L5.89270588,16.6187939 L6.29078431,16.7334941 L6.69454902,16.828089 L7.10960784,16.9026183 L7.5274902,16.9570422 L7.95384314,16.988534 L8.38584314,17" id="Fill-3" fill="#D82331" mask="url(#mask-2)"></path>
            </g>
            <path id="Fill-5" fill="#F1AC3D" d="M13.0051373,3.30225293 L17.4521961,3.30225293 L17.4521961,2.80225293 L13.3891373,2.80225293 L13.0051373,3.30225293"></path>
            <path id="Fill-6" fill="#F1AC3D" d="M12.3387843,4.3284637 L17.4521961,4.3284637 L17.4521961,3.8284637 L12.6070196,3.8284637 L12.3387843,4.3284637"></path>
            <path id="Fill-7" fill="#F1AC3D" d="M11.8418431,5.35176815 L17.4521961,5.35176815 L17.4521961,4.85176815 L12.0395294,4.85176815 L11.8418431,5.35176815"></path>
            <path id="Fill-8" fill="#F1AC3D" d="M11.5001961,6.37801874 L17.4521961,6.37801874 L17.4521961,5.87801874 L11.6413725,5.87801874 L11.5001961,6.37801874"></path>
            <path id="Fill-9" fill="#F1AC3D" d="M11.6978431,11.337082 L17.4663137,11.337082 L17.4663137,10.837082 L11.5566667,10.837082 L11.6978431,11.337082"></path>
            <path id="Fill-10" fill="#F1AC3D" d="M12.1241961,12.3632927 L17.4663137,12.3632927 L17.4663137,11.8632927 L11.9124314,11.8632927 L12.1241961,12.3632927"></path>
            <path id="Fill-11" fill="#F1AC3D" d="M12.7227843,13.386637 L17.4663137,13.386637 L17.4663137,12.886637 L12.4376078,12.886637 L12.7227843,13.386637"></path>
            <path id="Fill-12" fill="#F1AC3D" d="M13.5472549,14.4099813 L17.4663137,14.4099813 L17.4663137,13.9099813 L13.1491373,13.9099813 L13.5472549,14.4099813"></path>
            <path id="Fill-13" fill="#F1AC3D" d="M11.2997255,7.401363 L17.4521961,7.401363 L17.4521961,6.901363 L11.3872549,6.901363 L11.2997255,7.401363"></path>
            <path id="Fill-14" fill="#F1AC3D" d="M15.0493725,10.3137377 L17.3957255,10.3137377 L17.3957255,9.8137377 L15.1340784,9.8137377 L15.0493725,10.3137377"></path>
            <path id="Fill-15" fill="#F1AC3D" d="M15.2357255,9.28752693 L17.3957255,9.28752693 L17.3957255,8.78752693 L15.3204314,8.78752693 L15.2357255,9.28752693"></path>
            <path id="Fill-16" fill="#F1AC3D" d="M11.1444314,8.78752693 L11.7543137,8.78752693 L11.7543137,9.28752693 L11.1726667,9.28752693 L11.1444314,8.78752693"></path>
            <path d="M10.006549,8.22855738 L9.96701961,8.22569087 L9.9274902,8.21995785 L9.89078431,8.21422482 L9.85407843,8.2084918 L9.82019608,8.20275878 L9.74678431,8.19129274 L9.7072549,8.18555972 L9.66772549,8.1798267 L9.62254902,8.17696019 L9.57172549,8.17409368 L9.51807843,8.17122717 L9.45878431,8.17122717 L9.39384314,8.17409368 L9.32043137,8.1798267 L9.23854902,8.18555972 L9.18207843,8.19415925 L9.12843137,8.20275878 L9.08043137,8.21995785 L9.03807843,8.23715691 L8.99854902,8.25722248 L8.96184314,8.28015457 L8.90819608,8.33461827 L8.8912549,8.36614988 L8.87713725,8.3976815 L8.8714902,8.43207963 L8.8714902,8.46647775 L8.87996078,8.50374239 L8.8912549,8.54100703 L8.91384314,8.57827166 L8.94207843,8.6155363 L8.99854902,8.67 L9.06631373,8.71299766 L9.14537255,8.7502623 L9.23007843,8.78179391 L9.32043137,8.81045902 L9.41360784,8.84199063 L9.50678431,8.87638876 L9.59713725,8.9136534 L9.68184314,8.96238407 L9.76090196,9.0225808 L9.8314902,9.09424356 L9.89078431,9.18310539 L9.93596078,9.29203279 L9.96419608,9.42102576 L9.9754902,9.57581733 L9.96419608,9.75640749 L9.94443137,9.89113349 L9.91054902,10.0086604 L9.86537255,10.1175878 L9.80890196,10.2121827 L9.74396078,10.2953115 L9.67054902,10.3669742 L9.5914902,10.4300375 L9.50396078,10.4845012 L9.41360784,10.527459 L9.32043137,10.5647635 L9.22443137,10.5934286 L9.12560784,10.6163208 L9.02960784,10.6335597 L8.93643137,10.6421593 L8.8432549,10.6478923 L8.75572549,10.6507588 L8.63431373,10.6507588 L8.52137255,10.6478923 L8.42254902,10.6478923 L8.32937255,10.6449859 L8.24466667,10.6421593 L8.16843137,10.6364262 L8.10066667,10.6306932 L8.03572549,10.6220937 L7.97643137,10.6163208 L7.92278431,10.6048946 L7.86913725,10.5962951 L7.82113725,10.5819625 L7.77313725,10.5704965 L7.68278431,10.5360984 L7.63478431,10.5188993 L7.76184314,9.88540047 L7.7872549,9.89113349 L7.81831373,9.89969321 L7.85784314,9.91119906 L7.90584314,9.92266511 L7.95666667,9.93413115 L8.01313725,9.94559719 L8.0752549,9.95988993 L8.14301961,9.97139578 L8.21360784,9.98286183 L8.28701961,9.99432787 L8.3632549,10.0029274 L8.44231373,10.0115269 L8.52419608,10.0143934 L8.60607843,10.01726 L8.68796078,10.01726 L8.76984314,10.0143934 L8.85172549,9.99719438 L8.91666667,9.9742623 L8.9674902,9.94273068 L9.00701961,9.90259953 L9.0352549,9.86246838 L9.05784314,9.81660422 L9.07196078,9.77074005 L9.0832549,9.72774239 L9.08890196,9.64461358 L9.0634902,9.57295082 L9.0154902,9.51562061 L8.94490196,9.46688993 L8.86019608,9.42389227 L8.76137255,9.38089461 L8.6512549,9.34076347 L8.54113725,9.2948993 L8.42819608,9.24330211 L8.32090196,9.18310539 L8.22207843,9.10857611 L8.13172549,9.01971429 L8.06113725,8.91078689 L8.01031373,8.78179391 L7.98490196,8.62700234 L7.98772549,8.44354567 L8.00184314,8.33175176 L8.02160784,8.22569087 L8.04984314,8.12822951 L8.08372549,8.03650117 L8.12890196,7.95050585 L8.17972549,7.87597658 L8.23901961,7.80431382 L8.30960784,7.74125059 L8.3914902,7.68678689 L8.48184314,7.64092272 L8.5834902,7.59792506 L8.69643137,7.56639344 L8.8234902,7.54059485 L8.96184314,7.52052927 L9.11431373,7.50906323 L9.28090196,7.50619672 L9.38537255,7.50619672 L9.48137255,7.50906323 L9.56890196,7.51192974 L9.64796078,7.51479625 L9.71854902,7.52052927 L9.7834902,7.5262623 L9.83996078,7.53199532 L9.89078431,7.53772834 L9.93878431,7.54346136 L9.97831373,7.55206089 L10.0150196,7.55779391 L10.048902,7.56352693 L10.0771373,7.56925995 L10.1025882,7.57212646 L10.1279608,7.57785948 L10.150549,7.580726 L10.006549,8.22855738" id="Fill-17" fill="#FFFFFF"></path>
            <path d="M10.006549,8.22855738 L10.006549,8.22855738 L9.96701961,8.22569087 L9.9274902,8.21995785 L9.89078431,8.21422482 L9.85407843,8.2084918 L9.82019608,8.20275878 L9.74678431,8.19129274 L9.7072549,8.18555972 L9.66772549,8.1798267 L9.62254902,8.17696019 L9.57172549,8.17409368 L9.51807843,8.17122717 L9.45878431,8.17122717 L9.39384314,8.17409368 L9.32043137,8.1798267 L9.23854902,8.18555972 L9.18207843,8.19415925 L9.12843137,8.20275878 L9.08043137,8.21995785 L9.03807843,8.23715691 L8.99854902,8.25722248 L8.96184314,8.28015457 L8.90819608,8.33461827 L8.8912549,8.36614988 L8.87713725,8.3976815 L8.8714902,8.43207963 L8.8714902,8.46647775 L8.87996078,8.50374239 L8.8912549,8.54100703 L8.91384314,8.57827166 L8.94207843,8.6155363 L8.99854902,8.67 L9.06631373,8.71299766 L9.14537255,8.7502623 L9.23007843,8.78179391 L9.32043137,8.81045902 L9.41360784,8.84199063 L9.50678431,8.87638876 L9.59713725,8.9136534 L9.68184314,8.96238407 L9.76090196,9.0225808 L9.8314902,9.09424356 L9.89078431,9.18310539 L9.93596078,9.29203279 L9.96419608,9.42102576 L9.9754902,9.57581733 L9.96419608,9.75640749 L9.94443137,9.89113349 L9.91054902,10.0086604 L9.86537255,10.1175878 L9.80890196,10.2121827 L9.74396078,10.2953115 L9.67054902,10.3669742 L9.5914902,10.4300375 L9.50396078,10.4845012 L9.41360784,10.527459 L9.32043137,10.5647635 L9.22443137,10.5934286 L9.12560784,10.6163208 L9.02960784,10.6335597 L8.93643137,10.6421593 L8.8432549,10.6478923 L8.75572549,10.6507588 L8.63431373,10.6507588 L8.52137255,10.6478923 L8.42254902,10.6478923 L8.32937255,10.6449859 L8.24466667,10.6421593 L8.16843137,10.6364262 L8.10066667,10.6306932 L8.03572549,10.6220937 L7.97643137,10.6163208 L7.92278431,10.6048946 L7.86913725,10.5962951 L7.82113725,10.5819625 L7.77313725,10.5704965 L7.68278431,10.5360984 L7.63478431,10.5188993 L7.76184314,9.88540047 L7.7872549,9.89113349 L7.81831373,9.89969321 L7.85784314,9.91119906 L7.90584314,9.92266511 L7.95666667,9.93413115 L8.01313725,9.94559719 L8.0752549,9.95988993 L8.14301961,9.97139578 L8.21360784,9.98286183 L8.28701961,9.99432787 L8.3632549,10.0029274 L8.44231373,10.0115269 L8.52419608,10.0143934 L8.60607843,10.01726 L8.68796078,10.01726 L8.76984314,10.0143934 L8.85172549,9.99719438 L8.91666667,9.9742623 L8.9674902,9.94273068 L9.00701961,9.90259953 L9.0352549,9.86246838 L9.05784314,9.81660422 L9.07196078,9.77074005 L9.0832549,9.72774239 L9.08890196,9.64461358 L9.0634902,9.57295082 L9.0154902,9.51562061 L8.94490196,9.46688993 L8.86019608,9.42389227 L8.76137255,9.38089461 L8.6512549,9.34076347 L8.54113725,9.2948993 L8.42819608,9.24330211 L8.32090196,9.18310539 L8.22207843,9.10857611 L8.13172549,9.01971429 L8.06113725,8.91078689 L8.01031373,8.78179391 L7.98490196,8.62700234 L7.98772549,8.44354567 L8.00184314,8.33175176 L8.02160784,8.22569087 L8.04984314,8.12822951 L8.08372549,8.03650117 L8.12890196,7.95050585 L8.17972549,7.87597658 L8.23901961,7.80431382 L8.30960784,7.74125059 L8.3914902,7.68678689 L8.48184314,7.64092272 L8.5834902,7.59792506 L8.69643137,7.56639344 L8.8234902,7.54059485 L8.96184314,7.52052927 L9.11431373,7.50906323 L9.28090196,7.50619672 L9.38537255,7.50619672 L9.48137255,7.50906323 L9.56890196,7.51192974 L9.64796078,7.51479625 L9.71854902,7.52052927 L9.7834902,7.5262623 L9.83996078,7.53199532 L9.89078431,7.53772834 L9.93878431,7.54346136 L9.97831373,7.55206089 L10.0150196,7.55779391 L10.048902,7.56352693 L10.0771373,7.56925995 L10.1025882,7.57212646 L10.1279608,7.57785948 L10.150549,7.580726 L10.006549,8.22855738" id="Stroke-18" stroke="#FFFFFF" stroke-width="0.215"></path>
            <path d="M10.6757255,6.87269789 L11.4578431,6.87269789 L11.3420784,7.56639344 L11.8136078,7.56639344 L11.7119608,8.21422482 L11.2150196,8.19989227 L10.9439608,9.79940515 L10.9411373,9.85673536 L10.9552549,9.90546604 L10.9835294,9.94273068 L11.0201961,9.9742623 L11.0710196,9.99432787 L11.1274902,10.0115269 L11.1896078,10.022993 L11.2573725,10.028726 L11.3194902,10.0258595 L11.3759608,10.0201265 L11.4267843,10.0115269 L11.4719608,10.0000609 L11.5086667,9.98859485 L11.5510196,9.9742623 L11.5566667,9.97139578 L11.4578431,10.5045667 L11.4380784,10.5188993 L11.4183137,10.5303653 L11.3985882,10.5418314 L11.3787843,10.5532974 L11.3590196,10.561897 L11.3364706,10.5704965 L11.3110196,10.579096 L11.2856078,10.5876956 L11.2573725,10.5962951 L11.2291373,10.6020281 L11.1952549,10.6077611 L11.1614118,10.6134941 L11.1246667,10.6192272 L11.0823137,10.6249602 L11.0371373,10.6306932 L10.9891373,10.6364262 L10.774549,10.6364262 L10.6616078,10.6278267 L10.5627843,10.6163208 L10.4724314,10.5991616 L10.3962353,10.579096 L10.3312549,10.5532974 L10.2776471,10.5246323 L10.2296078,10.4902342 L10.192902,10.4529696 L10.1647059,10.4128384 L10.144902,10.3641077 L10.1307843,10.315377 L10.1223137,10.2609133 L10.1194902,10.2007166 L10.1194902,10.1376534 L10.1279608,10.0717237 L10.1364314,10.0000609 L10.6757255,6.87269789" id="Fill-19" fill="#FFFFFF"></path>
            <path d="M10.6757255,6.87269789 L11.4578431,6.87269789 L11.3420784,7.56639344 L11.8136078,7.56639344 L11.7119608,8.21422482 L11.2150196,8.19989227 L10.9439608,9.79940515 L10.9411373,9.85673536 L10.9552549,9.90546604 L10.9835294,9.94273068 L11.0201961,9.9742623 L11.0710196,9.99432787 L11.1274902,10.0115269 L11.1896078,10.022993 L11.2573725,10.028726 L11.3194902,10.0258595 L11.3759608,10.0201265 L11.4267843,10.0115269 L11.4719608,10.0000609 L11.5086667,9.98859485 L11.5510196,9.9742623 L11.5566667,9.97139578 L11.4578431,10.5045667 L11.4380784,10.5188993 L11.4183137,10.5303653 L11.3985882,10.5418314 L11.3787843,10.5532974 L11.3590196,10.561897 L11.3364706,10.5704965 L11.3110196,10.579096 L11.2856078,10.5876956 L11.2573725,10.5962951 L11.2291373,10.6020281 L11.1952549,10.6077611 L11.1614118,10.6134941 L11.1246667,10.6192272 L11.0823137,10.6249602 L11.0371373,10.6306932 L10.9891373,10.6364262 L10.774549,10.6364262 L10.6616078,10.6278267 L10.5627843,10.6163208 L10.4724314,10.5991616 L10.3962353,10.579096 L10.3312549,10.5532974 L10.2776471,10.5246323 L10.2296078,10.4902342 L10.192902,10.4529696 L10.1647059,10.4128384 L10.144902,10.3641077 L10.1307843,10.315377 L10.1223137,10.2609133 L10.1194902,10.2007166 L10.1194902,10.1376534 L10.1279608,10.0717237 L10.1364314,10.0000609 L10.6757255,6.87269789" id="Stroke-20" stroke="#FFFFFF" stroke-width="0.215"></path>
            <path d="M12.4376078,9.2948993 L12.4291373,9.34362998 L12.4263137,9.39522717 L12.4319608,9.44969087 L12.4432549,9.50415457 L12.4630196,9.55861827 L12.4856078,9.61021546 L12.5166667,9.66467916 L12.550549,9.71340984 L12.5900784,9.76214052 L12.6324314,9.80513817 L12.6776078,9.84813583 L12.7284314,9.88253396 L12.7792549,9.91406557 L12.8357255,9.93986417 L12.8921961,9.95988993 L12.9486667,9.97139578 L13.0220784,9.98286183 L13.0926667,9.99146136 L13.1660784,10.0000609 L13.2394902,10.0057939 L13.312902,10.0086604 L13.3891373,10.0086604 L13.462549,10.0057939 L13.5387843,10.0000609 L13.6150196,9.98859485 L13.6912549,9.9742623 L13.7703137,9.95706323 L13.846549,9.93126464 L13.9256078,9.89969321 L14.0074902,9.86533489 L14.086549,9.81947073 L14.1684314,9.77074005 L14.0554902,10.4759016 L13.9651373,10.5217658 L13.9199608,10.5389649 L13.8776078,10.5561241 L13.8352549,10.5704965 L13.7900784,10.584829 L13.7449412,10.5962951 L13.696902,10.6048946 L13.6460784,10.6134941 L13.5896078,10.6192272 L13.5303137,10.6249602 L13.4653725,10.6306932 L13.392,10.6335597 L13.3157255,10.6335597 L13.2281961,10.6364262 L13.1350196,10.6364262 L12.9966667,10.6335597 L12.8554902,10.6192272 L12.7143137,10.5991616 L12.5731373,10.5647635 L12.4347843,10.5217658 L12.3020784,10.4672623 L12.1750196,10.3956393 L12.0564314,10.3125105 L11.9463137,10.2150492 L11.8503137,10.0975222 L11.7684314,9.96566276 L11.7006667,9.8137377 L11.6526667,9.64461358 L11.6216078,9.45255738 L11.6131373,9.2404356 L11.6272941,9.00538173 L11.638549,8.9136534 L11.6554902,8.80759251 L11.6780784,8.69579859 L11.7091373,8.57540515 L11.7514902,8.4521452 L11.8023137,8.32888525 L11.8672941,8.20275878 L11.9463137,8.08236534 L12.0366667,7.96770492 L12.1467843,7.85877752 L12.2710196,7.76131616 L12.4121961,7.67532084 L12.5759608,7.60365808 L12.7594902,7.55206089 L12.9627843,7.51766276 L13.1914902,7.50619672 L13.3016078,7.50906323 L13.4173725,7.52052927 L13.5331373,7.54059485 L13.648902,7.56925995 L13.7618431,7.61225761 L13.8719608,7.6638548 L13.9736078,7.73265105 L14.0667843,7.81291335 L14.1514902,7.91037471 L14.2220784,8.02503513 L14.278549,8.15689461 L14.3180784,8.30881967 L14.3406667,8.4808103 L14.3434902,8.67573302 L14.3237255,8.89358782 L14.2813725,9.13437471 L14.2672549,9.30923185 L12.208902,9.30923185 L12.3387843,8.74452927 L13.5754902,8.74452927 L13.5811373,8.67286651 L13.5783137,8.60407026 L13.5726667,8.54100703 L13.5613725,8.48367681 L13.5416078,8.42921311 L13.5218431,8.38048244 L13.4936078,8.33748478 L13.4653725,8.29735363 L13.4314902,8.2629555 L13.3947843,8.2342904 L13.3524314,8.2084918 L13.3100784,8.18555972 L13.264902,8.16836066 L13.2197255,8.15689461 L13.1717255,8.14829508 L13.120902,8.14256206 L13.0672549,8.14542857 L13.0164314,8.1540281 L12.9684314,8.16549415 L12.9204314,8.18269321 L12.8724314,8.20562529 L12.8300784,8.23142389 L12.7877255,8.2629555 L12.7510196,8.29735363 L12.7143137,8.33748478 L12.6804314,8.38048244 L12.6493725,8.4263466 L12.6239608,8.47507728 L12.598549,8.52667447 L12.5787843,8.58400468 L12.5618431,8.64133489 L12.550549,8.70153162 L12.4376078,9.2948993" id="Fill-21" fill="#FFFFFF"></path>
            <path d="M12.4376078,9.2948993 L12.4376078,9.2948993 L12.4291373,9.34362998 L12.4263137,9.39522717 L12.4319608,9.44969087 L12.4432549,9.50415457 L12.4630196,9.55861827 L12.4856078,9.61021546 L12.5166667,9.66467916 L12.550549,9.71340984 L12.5900784,9.76214052 L12.6324314,9.80513817 L12.6776078,9.84813583 L12.7284314,9.88253396 L12.7792549,9.91406557 L12.8357255,9.93986417 L12.8921961,9.95988993 L12.9486667,9.97139578 L13.0220784,9.98286183 L13.0926667,9.99146136 L13.1660784,10.0000609 L13.2394902,10.0057939 L13.312902,10.0086604 L13.3891373,10.0086604 L13.462549,10.0057939 L13.5387843,10.0000609 L13.6150196,9.98859485 L13.6912549,9.9742623 L13.7703137,9.95706323 L13.846549,9.93126464 L13.9256078,9.89969321 L14.0074902,9.86533489 L14.086549,9.81947073 L14.1684314,9.77074005 L14.0554902,10.4759016 L13.9651373,10.5217658 L13.9199608,10.5389649 L13.8776078,10.5561241 L13.8352549,10.5704965 L13.7900784,10.584829 L13.7449412,10.5962951 L13.696902,10.6048946 L13.6460784,10.6134941 L13.5896078,10.6192272 L13.5303137,10.6249602 L13.4653725,10.6306932 L13.392,10.6335597 L13.3157255,10.6335597 L13.2281961,10.6364262 L13.1350196,10.6364262 L12.9966667,10.6335597 L12.8554902,10.6192272 L12.7143137,10.5991616 L12.5731373,10.5647635 L12.4347843,10.5217658 L12.3020784,10.4672623 L12.1750196,10.3956393 L12.0564314,10.3125105 L11.9463137,10.2150492 L11.8503137,10.0975222 L11.7684314,9.96566276 L11.7006667,9.8137377 L11.6526667,9.64461358 L11.6216078,9.45255738 L11.6131373,9.2404356 L11.6272941,9.00538173 L11.638549,8.9136534 L11.6554902,8.80759251 L11.6780784,8.69579859 L11.7091373,8.57540515 L11.7514902,8.4521452 L11.8023137,8.32888525 L11.8672941,8.20275878 L11.9463137,8.08236534 L12.0366667,7.96770492 L12.1467843,7.85877752 L12.2710196,7.76131616 L12.4121961,7.67532084 L12.5759608,7.60365808 L12.7594902,7.55206089 L12.9627843,7.51766276 L13.1914902,7.50619672 L13.3016078,7.50906323 L13.4173725,7.52052927 L13.5331373,7.54059485 L13.648902,7.56925995 L13.7618431,7.61225761 L13.8719608,7.6638548 L13.9736078,7.73265105 L14.0667843,7.81291335 L14.1514902,7.91037471 L14.2220784,8.02503513 L14.278549,8.15689461 L14.3180784,8.30881967 L14.3406667,8.4808103 L14.3434902,8.67573302 L14.3237255,8.89358782 L14.2813725,9.13437471 L14.2672549,9.30923185 L12.208902,9.30923185 L12.3387843,8.74452927 L13.5754902,8.74452927 L13.5811373,8.67286651 L13.5783137,8.60407026 L13.5726667,8.54100703 L13.5613725,8.48367681 L13.5416078,8.42921311 L13.5218431,8.38048244 L13.4936078,8.33748478 L13.4653725,8.29735363 L13.4314902,8.2629555 L13.3947843,8.2342904 L13.3524314,8.2084918 L13.3100784,8.18555972 L13.264902,8.16836066 L13.2197255,8.15689461 L13.1717255,8.14829508 L13.120902,8.14256206 L13.0672549,8.14542857 L13.0164314,8.1540281 L12.9684314,8.16549415 L12.9204314,8.18269321 L12.8724314,8.20562529 L12.8300784,8.23142389 L12.7877255,8.2629555 L12.7510196,8.29735363 L12.7143137,8.33748478 L12.6804314,8.38048244 L12.6493725,8.4263466 L12.6239608,8.47507728 L12.598549,8.52667447 L12.5787843,8.58400468 L12.5618431,8.64133489 L12.550549,8.70153162 L12.4376078,9.2948993" id="Stroke-22" stroke="#FFFFFF" stroke-width="0.215"></path>
            <path d="M19.1717255,7.73838407 L19.1350196,7.7183185 L19.0983137,7.70111944 L19.0587843,7.68105386 L19.0164314,7.66098829 L18.9740784,7.64378923 L18.8780784,7.6093911 L18.8272549,7.59219204 L18.7736078,7.57785948 L18.7199608,7.56639344 L18.6606667,7.5549274 L18.6013725,7.54632787 L18.5364314,7.54059485 L18.4714902,7.53486183 L18.262549,7.53486183 L18.1891373,7.54059485 L18.112902,7.54919438 L18.0338431,7.56352693 L17.9547843,7.58645902 L17.8757255,7.61799063 L17.7966667,7.65812178 L17.7176078,7.70971897 L17.6413725,7.7727822 L17.5679608,7.84731148 L17.4973725,7.93903981 L17.4296078,8.0451007 L17.3674902,8.17122717 L17.3081961,8.31455269 L17.254549,8.47507728 L17.2093725,8.65853396 L17.1924314,8.76172834 L17.1811373,8.86205621 L17.1754902,8.96238407 L17.1783137,9.05984543 L17.1867843,9.15730679 L17.206549,9.24903513 L17.2319608,9.33503044 L17.2630196,9.42102576 L17.3053725,9.49842155 L17.3561961,9.57295082 L17.4154902,9.63888056 L17.4832549,9.69907728 L17.5594902,9.75063466 L17.6470196,9.79367213 L17.7430196,9.83093677 L17.8503137,9.85673536 L17.8870196,9.86533489 L17.9293725,9.87393443 L17.9801961,9.87966745 L18.0366667,9.88540047 L18.0987843,9.89113349 L18.2343137,9.89113349 L18.304902,9.88540047 L18.3783137,9.87680094 L18.4517255,9.86246838 L18.5223137,9.84240281 L18.592902,9.81947073 L18.6634902,9.78793911 L18.7284314,9.75063466 L18.7877255,9.7048103 L18.8441961,9.65321311 L18.7171373,10.4185714 L18.7001961,10.432904 L18.6832549,10.450103 L18.6606667,10.4701686 L18.6352549,10.4873677 L18.6041961,10.5102998 L18.5646667,10.5303653 L18.5194902,10.5504309 L18.4686667,10.56763 L18.4037255,10.5876956 L18.3303137,10.6020281 L18.2456078,10.6134941 L18.1467843,10.6249602 L18.0366667,10.6306932 L17.9096078,10.6335597 L17.7656078,10.6306932 L17.6074902,10.6220937 L17.4776078,10.6077611 L17.3477255,10.579096 L17.2178431,10.5360984 L17.0879608,10.4787681 L16.9637255,10.4099719 L16.8451373,10.3239766 L16.7321961,10.2236487 L16.6277255,10.1089485 L16.534549,9.97999532 L16.4554902,9.83666979 L16.3877255,9.6761452 L16.336902,9.50128806 L16.3030196,9.30923185 L16.2917255,9.1057096 L16.2973725,8.88212178 L16.3284314,8.64420141 L16.3510196,8.52667447 L16.3764314,8.41201405 L16.4046667,8.30022014 L16.432902,8.19415925 L16.4639608,8.09383138 L16.5006667,7.99350351 L16.5373725,7.89890867 L16.576902,7.81004684 L16.6192549,7.72118501 L16.6616078,7.63805621 L16.7096078,7.55779391 L16.7604314,7.48326464 L16.8112549,7.41160187 L16.8677255,7.34280562 L16.9241961,7.27974239 L16.9834902,7.21954567 L17.0484314,7.16221546 L17.1133725,7.10775176 L17.1811373,7.05902108 L17.2517255,7.01315691 L17.3279608,6.97015925 L17.4041961,6.93289461 L17.4832549,6.89849649 L17.5651373,6.86696487 L17.6526667,6.83829977 L17.7401961,6.81536768 L17.830549,6.79530211 L17.926549,6.77810304 L18.022549,6.76373068 L18.1241961,6.75230445 L18.2258431,6.74657143 L18.3331373,6.74370492 L18.4234902,6.74657143 L18.5110196,6.75230445 L18.5957255,6.76086417 L18.6804314,6.77237002 L18.7594902,6.78383607 L18.8357255,6.80103513 L18.9091373,6.81536768 L18.976902,6.83256674 L19.0418431,6.84976581 L19.0983137,6.86696487 L19.1519608,6.88416393 L19.1971373,6.901363 L19.2366667,6.91569555 L19.270549,6.92716159 L19.2959608,6.93862763 L19.312902,6.94436066 L19.1717255,7.73838407" id="Fill-23" fill="#FFFFFF"></path>
            <path d="M19.1717255,7.73838407 L19.1717255,7.73838407 L19.1350196,7.7183185 L19.0983137,7.70111944 L19.0587843,7.68105386 L19.0164314,7.66098829 L18.9740784,7.64378923 L18.8780784,7.6093911 L18.8272549,7.59219204 L18.7736078,7.57785948 L18.7199608,7.56639344 L18.6606667,7.5549274 L18.6013725,7.54632787 L18.5364314,7.54059485 L18.4714902,7.53486183 L18.262549,7.53486183 L18.1891373,7.54059485 L18.112902,7.54919438 L18.0338431,7.56352693 L17.9547843,7.58645902 L17.8757255,7.61799063 L17.7966667,7.65812178 L17.7176078,7.70971897 L17.6413725,7.7727822 L17.5679608,7.84731148 L17.4973725,7.93903981 L17.4296078,8.0451007 L17.3674902,8.17122717 L17.3081961,8.31455269 L17.254549,8.47507728 L17.2093725,8.65853396 L17.1924314,8.76172834 L17.1811373,8.86205621 L17.1754902,8.96238407 L17.1783137,9.05984543 L17.1867843,9.15730679 L17.206549,9.24903513 L17.2319608,9.33503044 L17.2630196,9.42102576 L17.3053725,9.49842155 L17.3561961,9.57295082 L17.4154902,9.63888056 L17.4832549,9.69907728 L17.5594902,9.75063466 L17.6470196,9.79367213 L17.7430196,9.83093677 L17.8503137,9.85673536 L17.8870196,9.86533489 L17.9293725,9.87393443 L17.9801961,9.87966745 L18.0366667,9.88540047 L18.0987843,9.89113349 L18.2343137,9.89113349 L18.304902,9.88540047 L18.3783137,9.87680094 L18.4517255,9.86246838 L18.5223137,9.84240281 L18.592902,9.81947073 L18.6634902,9.78793911 L18.7284314,9.75063466 L18.7877255,9.7048103 L18.8441961,9.65321311 L18.7171373,10.4185714 L18.7001961,10.432904 L18.6832549,10.450103 L18.6606667,10.4701686 L18.6352549,10.4873677 L18.6041961,10.5102998 L18.5646667,10.5303653 L18.5194902,10.5504309 L18.4686667,10.56763 L18.4037255,10.5876956 L18.3303137,10.6020281 L18.2456078,10.6134941 L18.1467843,10.6249602 L18.0366667,10.6306932 L17.9096078,10.6335597 L17.7656078,10.6306932 L17.6074902,10.6220937 L17.4776078,10.6077611 L17.3477255,10.579096 L17.2178431,10.5360984 L17.0879608,10.4787681 L16.9637255,10.4099719 L16.8451373,10.3239766 L16.7321961,10.2236487 L16.6277255,10.1089485 L16.534549,9.97999532 L16.4554902,9.83666979 L16.3877255,9.6761452 L16.336902,9.50128806 L16.3030196,9.30923185 L16.2917255,9.1057096 L16.2973725,8.88212178 L16.3284314,8.64420141 L16.3510196,8.52667447 L16.3764314,8.41201405 L16.4046667,8.30022014 L16.432902,8.19415925 L16.4639608,8.09383138 L16.5006667,7.99350351 L16.5373725,7.89890867 L16.576902,7.81004684 L16.6192549,7.72118501 L16.6616078,7.63805621 L16.7096078,7.55779391 L16.7604314,7.48326464 L16.8112549,7.41160187 L16.8677255,7.34280562 L16.9241961,7.27974239 L16.9834902,7.21954567 L17.0484314,7.16221546 L17.1133725,7.10775176 L17.1811373,7.05902108 L17.2517255,7.01315691 L17.3279608,6.97015925 L17.4041961,6.93289461 L17.4832549,6.89849649 L17.5651373,6.86696487 L17.6526667,6.83829977 L17.7401961,6.81536768 L17.830549,6.79530211 L17.926549,6.77810304 L18.022549,6.76373068 L18.1241961,6.75230445 L18.2258431,6.74657143 L18.3331373,6.74370492 L18.4234902,6.74657143 L18.5110196,6.75230445 L18.5957255,6.76086417 L18.6804314,6.77237002 L18.7594902,6.78383607 L18.8357255,6.80103513 L18.9091373,6.81536768 L18.976902,6.83256674 L19.0418431,6.84976581 L19.0983137,6.86696487 L19.1519608,6.88416393 L19.1971373,6.901363 L19.2366667,6.91569555 L19.270549,6.92716159 L19.2959608,6.93862763 L19.312902,6.94436066 L19.1717255,7.73838407" id="Stroke-24" stroke="#FFFFFF" stroke-width="0.215"></path>
            <path d="M26.1232549,10.6364262 L25.3411373,10.6364262 L25.3976471,10.3182037 L25.3976471,10.2895785 L25.3524314,10.3468689 L25.3044314,10.3985059 L25.2564314,10.44437 L25.2056078,10.4845012 L25.1547843,10.5217658 L25.1039608,10.5532974 L25.0531373,10.579096 L24.9994902,10.6048946 L24.9458431,10.6249602 L24.8921961,10.6392927 L24.838549,10.6536253 L24.7820784,10.6622248 L24.7256078,10.6708244 L24.6719608,10.6765176 L24.6154902,10.6794239 L24.5590196,10.6794239 L24.4121961,10.6679578 L24.2766667,10.6364262 L24.1524314,10.5876956 L24.0394902,10.5217658 L23.9378431,10.438637 L23.8474902,10.3411756 L23.7684314,10.2351148 L23.7006667,10.1147213 L23.6441961,9.98572834 L23.5990196,9.85100234 L23.5679608,9.71054333 L23.5453725,9.56435129 L23.536902,9.41815925 L23.5397255,9.2691007 L23.5538431,9.12290867 L23.5792549,8.97671663 L23.6216078,8.80759251 L23.6724314,8.64706792 L23.7317255,8.50087588 L23.8023137,8.36328337 L23.8757255,8.2342904 L23.9604314,8.11962998 L24.0479608,8.0164356 L24.1411373,7.92184075 L24.2399608,7.83871194 L24.3444314,7.76704918 L24.4517647,7.70398595 L24.5590196,7.65525527 L24.6719608,7.61512412 L24.784902,7.58932553 L24.8978431,7.57212646 L25.0136078,7.56639344 L25.0954902,7.56925995 L25.174549,7.57785948 L25.2479608,7.59219204 L25.3157255,7.61225761 L25.3806667,7.6351897 L25.4371373,7.66098829 L25.4936078,7.69251991 L25.5444314,7.72405152 L25.5896078,7.75844965 L25.632,7.79571429 L25.6686667,7.83297892 L25.702549,7.87024356 L25.7307843,7.9075082 L25.7561961,7.94477283 L25.7787843,7.97917096 L25.7957255,8.01356909 L25.9933725,6.88703044 L26.7613725,6.88703044 L26.1232549,10.6364262" id="Fill-25" fill="#FFFFFF"></path>
            <path d="M26.1232549,10.6364262 L25.3411373,10.6364262 L25.3976471,10.3182037 L25.3976471,10.2895785 L25.3524314,10.3468689 L25.3044314,10.3985059 L25.2564314,10.44437 L25.2056078,10.4845012 L25.1547843,10.5217658 L25.1039608,10.5532974 L25.0531373,10.579096 L24.9994902,10.6048946 L24.9458431,10.6249602 L24.8921961,10.6392927 L24.838549,10.6536253 L24.7820784,10.6622248 L24.7256078,10.6708244 L24.6719608,10.6765176 L24.6154902,10.6794239 L24.5590196,10.6794239 L24.4121961,10.6679578 L24.2766667,10.6364262 L24.1524314,10.5876956 L24.0394902,10.5217658 L23.9378431,10.438637 L23.8474902,10.3411756 L23.7684314,10.2351148 L23.7006667,10.1147213 L23.6441961,9.98572834 L23.5990196,9.85100234 L23.5679608,9.71054333 L23.5453725,9.56435129 L23.536902,9.41815925 L23.5397255,9.2691007 L23.5538431,9.12290867 L23.5792549,8.97671663 L23.6216078,8.80759251 L23.6724314,8.64706792 L23.7317255,8.50087588 L23.8023137,8.36328337 L23.8757255,8.2342904 L23.9604314,8.11962998 L24.0479608,8.0164356 L24.1411373,7.92184075 L24.2399608,7.83871194 L24.3444314,7.76704918 L24.4517647,7.70398595 L24.5590196,7.65525527 L24.6719608,7.61512412 L24.784902,7.58932553 L24.8978431,7.57212646 L25.0136078,7.56639344 L25.0954902,7.56925995 L25.174549,7.57785948 L25.2479608,7.59219204 L25.3157255,7.61225761 L25.3806667,7.6351897 L25.4371373,7.66098829 L25.4936078,7.69251991 L25.5444314,7.72405152 L25.5896078,7.75844965 L25.632,7.79571429 L25.6686667,7.83297892 L25.702549,7.87024356 L25.7307843,7.9075082 L25.7561961,7.94477283 L25.7787843,7.97917096 L25.7957255,8.01356909 L25.9933725,6.88703044 L26.7613725,6.88703044 L26.1232549,10.6364262" id="Stroke-26" stroke="#FFFFFF" stroke-width="0.215"></path>
            <path d="M24.8441961,9.94273068 L24.9232941,9.93699766 L24.9966667,9.91979859 L25.0644314,9.89969321 L25.1293725,9.86820141 L25.1886667,9.83380328 L25.2451373,9.79080562 L25.2987843,9.74207494 L25.3467843,9.69047775 L25.3891373,9.63314754 L25.4286667,9.57008431 L25.4653725,9.50415457 L25.4964314,9.43535831 L25.5246667,9.36369555 L25.5472549,9.28916628 L25.5670196,9.21177049 L25.5811373,9.13437471 L25.5952549,9.05411241 L25.6037255,8.97098361 L25.6037255,8.89358782 L25.600902,8.81332553 L25.5924314,8.73879625 L25.5811373,8.66713349 L25.5613725,8.59833724 L25.5387843,8.53240749 L25.5105882,8.47507728 L25.4766667,8.42061358 L25.4399608,8.37474941 L25.3976471,8.33461827 L25.3496078,8.30022014 L25.2987843,8.27728806 L25.2451373,8.2629555 L25.1858431,8.25722248 L25.1096078,8.2629555 L25.0390588,8.27442155 L24.9740784,8.29735363 L24.9091373,8.32601874 L24.8526667,8.36328337 L24.7961961,8.40914754 L24.7481961,8.45787822 L24.7001961,8.51234192 L24.6578431,8.57540515 L24.6183137,8.64133489 L24.5816078,8.71013115 L24.550549,8.78466042 L24.5223137,8.86205621 L24.4997255,8.93945199 L24.4771373,9.0225808 L24.4602353,9.1057096 L24.4460784,9.23183607 L24.4517647,9.36942857 L24.4714902,9.50988759 L24.5081961,9.64461358 L24.5646667,9.76214052 L24.6380784,9.85673536 L24.7312549,9.91979859 L24.8441961,9.94273068" id="Fill-27" fill="#F1AC3D"></path>
            <path d="M7.50490196,10.0000609 L7.39196078,10.6364262 L6.68043137,10.6364262 L6.70019608,10.5188993 L6.71431373,10.4128384 L6.72560784,10.3325761 L6.73690196,10.2895785 L6.69737255,10.3354426 L6.65219608,10.3813068 L6.59858824,10.4243044 L6.53929412,10.4644356 L6.4714902,10.5045667 L6.40090196,10.5389649 L6.3274902,10.573363 L6.2512549,10.6020281 L6.16937255,10.6278267 L6.0874902,10.6478923 L6.00560784,10.6650913 L5.92090196,10.6765176 L5.83901961,10.6822904 L5.75713725,10.6851569 L5.67807843,10.6765176 L5.60184314,10.6650913 L5.50301961,10.6392927 L5.41266667,10.6106276 L5.33364706,10.573363 L5.26301961,10.5303653 L5.20090196,10.4845012 L5.14443137,10.432904 L5.09929412,10.3784403 L5.05972549,10.3211101 L5.02584314,10.2609133 L4.99760784,10.1978103 L4.97501961,10.1347869 L4.95807843,10.0717237 L4.94678431,10.0057939 L4.93831373,9.93986417 L4.93266667,9.87680094 L4.93266667,9.8137377 L4.94113725,9.70194379 L4.95807843,9.5958829 L4.98631373,9.49555504 L5.02301961,9.39809368 L5.06819608,9.30636534 L5.11901961,9.22323653 L5.17831373,9.14297424 L5.24611765,9.07131148 L5.31666667,9.00538173 L5.39576471,8.94518501 L5.47760784,8.89072131 L5.56231373,8.84485714 L5.65266667,8.804726 L5.74588235,8.77319438 L5.84184314,8.74739578 L5.94066667,8.73019672 L5.94631373,8.73019672 L5.96043137,8.72733021 L5.98023529,8.7244637 L6.01129412,8.72159719 L6.04513725,8.71586417 L6.08466667,8.71299766 L6.12701961,8.70726464 L6.27101961,8.69006557 L6.32184314,8.68719906 L6.36701961,8.68146604 L6.41219608,8.67859953 L6.45454902,8.67573302 L6.49407843,8.67286651 L6.59007843,8.67286651 L6.65788235,8.67573302 L6.71996078,8.67859953 L6.78207843,8.67859953 L6.83290196,8.68146604 L6.87243137,8.68433255 L6.90066667,8.68719906 L6.90913725,8.68719906 L6.91478431,8.66713349 L6.93172549,8.6155363 L6.94584314,8.55533958 L6.95152941,8.50087588 L6.94019608,8.43781265 L6.91478431,8.38048244 L6.88090196,8.32888525 L6.83572549,8.28588759 L6.78207843,8.24862295 L6.72278431,8.22282436 L6.65501961,8.20562529 L6.58160784,8.19989227 L6.50254902,8.19702576 L6.41784314,8.19415925 L6.33031373,8.19415925 L6.23996078,8.19702576 L6.14678431,8.20275878 L5.96607843,8.21995785 L5.87854902,8.23142389 L5.79384314,8.24288993 L5.71196078,8.25722248 L5.63854902,8.27155504 L5.57082353,8.28588759 L5.50866667,8.30308665 L5.45784314,8.32028571 L5.41831373,8.34035129 L5.3872549,8.35755035 L5.58772549,7.66672131 L5.64984314,7.64092272 L5.71196078,7.61799063 L5.77972549,7.59792506 L5.9152549,7.56925995 L5.98866667,7.55779391 L6.06207843,7.54632787 L6.13831373,7.54059485 L6.21741176,7.53486183 L6.2992549,7.53199532 L6.38396078,7.52912881 L6.65501961,7.52912881 L6.75384314,7.53199532 L6.85266667,7.53486183 L6.93172549,7.54059485 L7.01643137,7.5549274 L7.10396078,7.57499297 L7.19431373,7.60079157 L7.28184314,7.6351897 L7.36654902,7.67532084 L7.4512549,7.72405152 L7.53031373,7.77851522 L7.60090196,7.84157845 L7.66301961,7.91037471 L7.7194902,7.98777049 L7.76184314,8.07376581 L7.79007843,8.16549415 L7.80701961,8.2629555 L7.80701961,8.3718829 L7.79007843,8.48654333 L7.50490196,10.0000609" id="Fill-28" fill="#FFFFFF"></path>
            <path d="M7.50490196,10.0000609 L7.39196078,10.6364262 L6.68043137,10.6364262 L6.70019608,10.5188993 L6.71431373,10.4128384 L6.72560784,10.3325761 L6.73690196,10.2895785 L6.69737255,10.3354426 L6.65219608,10.3813068 L6.59858824,10.4243044 L6.53929412,10.4644356 L6.4714902,10.5045667 L6.40090196,10.5389649 L6.3274902,10.573363 L6.2512549,10.6020281 L6.16937255,10.6278267 L6.0874902,10.6478923 L6.00560784,10.6650913 L5.92090196,10.6765176 L5.83901961,10.6822904 L5.75713725,10.6851569 L5.67807843,10.6765176 L5.60184314,10.6650913 L5.50301961,10.6392927 L5.41266667,10.6106276 L5.33364706,10.573363 L5.26301961,10.5303653 L5.20090196,10.4845012 L5.14443137,10.432904 L5.09929412,10.3784403 L5.05972549,10.3211101 L5.02584314,10.2609133 L4.99760784,10.1978103 L4.97501961,10.1347869 L4.95807843,10.0717237 L4.94678431,10.0057939 L4.93831373,9.93986417 L4.93266667,9.87680094 L4.93266667,9.8137377 L4.94113725,9.70194379 L4.95807843,9.5958829 L4.98631373,9.49555504 L5.02301961,9.39809368 L5.06819608,9.30636534 L5.11901961,9.22323653 L5.17831373,9.14297424 L5.24611765,9.07131148 L5.31666667,9.00538173 L5.39576471,8.94518501 L5.47760784,8.89072131 L5.56231373,8.84485714 L5.65266667,8.804726 L5.74588235,8.77319438 L5.84184314,8.74739578 L5.94066667,8.73019672 L5.94631373,8.73019672 L5.96043137,8.72733021 L5.98023529,8.7244637 L6.01129412,8.72159719 L6.04513725,8.71586417 L6.08466667,8.71299766 L6.12701961,8.70726464 L6.27101961,8.69006557 L6.32184314,8.68719906 L6.36701961,8.68146604 L6.41219608,8.67859953 L6.45454902,8.67573302 L6.49407843,8.67286651 L6.59007843,8.67286651 L6.65788235,8.67573302 L6.71996078,8.67859953 L6.78207843,8.67859953 L6.83290196,8.68146604 L6.87243137,8.68433255 L6.90066667,8.68719906 L6.90913725,8.68719906 L6.91478431,8.66713349 L6.93172549,8.6155363 L6.94584314,8.55533958 L6.95152941,8.50087588 L6.94019608,8.43781265 L6.91478431,8.38048244 L6.88090196,8.32888525 L6.83572549,8.28588759 L6.78207843,8.24862295 L6.72278431,8.22282436 L6.65501961,8.20562529 L6.58160784,8.19989227 L6.50254902,8.19702576 L6.41784314,8.19415925 L6.33031373,8.19415925 L6.23996078,8.19702576 L6.14678431,8.20275878 L5.96607843,8.21995785 L5.87854902,8.23142389 L5.79384314,8.24288993 L5.71196078,8.25722248 L5.63854902,8.27155504 L5.57082353,8.28588759 L5.50866667,8.30308665 L5.45784314,8.32028571 L5.41831373,8.34035129 L5.3872549,8.35755035 L5.58772549,7.66672131 L5.64984314,7.64092272 L5.71196078,7.61799063 L5.77972549,7.59792506 L5.9152549,7.56925995 L5.98866667,7.55779391 L6.06207843,7.54632787 L6.13831373,7.54059485 L6.21741176,7.53486183 L6.2992549,7.53199532 L6.38396078,7.52912881 L6.65501961,7.52912881 L6.75384314,7.53199532 L6.85266667,7.53486183 L6.93172549,7.54059485 L7.01643137,7.5549274 L7.10396078,7.57499297 L7.19431373,7.60079157 L7.28184314,7.6351897 L7.36654902,7.67532084 L7.4512549,7.72405152 L7.53031373,7.77851522 L7.60090196,7.84157845 L7.66301961,7.91037471 L7.7194902,7.98777049 L7.76184314,8.07376581 L7.79007843,8.16549415 L7.80701961,8.2629555 L7.80701961,8.3718829 L7.79007843,8.48654333 L7.50490196,10.0000609" id="Stroke-29" stroke="#FFFFFF" stroke-width="0.215"></path>
            <path d="M6.82443137,9.25190164 L6.82160784,9.23756909 L6.81031373,9.22323653 L6.79337255,9.214637 L6.76513725,9.20890398 L6.73407843,9.20317096 L6.69737255,9.20030445 L6.61266667,9.20030445 L6.5674902,9.20317096 L6.5194902,9.20890398 L6.47431373,9.214637 L6.42913725,9.22037002 L6.38678431,9.22610304 L6.3472549,9.23470258 L6.31337255,9.24330211 L6.28231373,9.25190164 L6.26254902,9.25763466 L6.23996078,9.26623419 L6.20890196,9.27770023 L6.17784314,9.29203279 L6.14113725,9.30923185 L6.10443137,9.32929742 L6.06490196,9.349363 L6.02819608,9.37229508 L5.98866667,9.40096019 L5.952,9.42962529 L5.91807843,9.46402342 L5.88701961,9.49842155 L5.85878431,9.53568618 L5.83901961,9.57581733 L5.82207843,9.6216815 L5.81360784,9.66754567 L5.81078431,9.76500703 L5.82490196,9.84240281 L5.85313725,9.89969321 L5.88984314,9.94273068 L5.93219608,9.97139578 L5.98023529,9.98859485 L6.02537255,9.99719438 L6.07058824,10.0000609 L6.1552549,9.99719438 L6.2314902,9.98859485 L6.30494118,9.97712881 L6.36984314,9.95988993 L6.42631373,9.93986417 L6.47996078,9.91406557 L6.52796078,9.88826698 L6.57031373,9.85673536 L6.60701961,9.82807026 L6.64090196,9.79367213 L6.66913725,9.76214052 L6.69172549,9.72774239 L6.7114902,9.69334426 L6.72843137,9.65894614 L6.74254902,9.62741452 L6.75101961,9.5958829 L6.77360784,9.5127541 L6.79337255,9.41815925 L6.81031373,9.32643091 L6.82443137,9.25190164" id="Fill-30" fill="#D82331"></path>
            <path d="M1.56419608,10.6364262 L0.796196078,10.6364262 L1.43713725,6.87269789 L2.77266667,6.87269789 L2.89972549,9.1057096 L3.82301961,6.87269789 L5.21788235,6.87269789 L4.56278431,10.6364262 L3.79478431,10.6364262 L4.28043137,7.82437939 L4.24937255,7.82437939 L3.10019608,10.6364262 L2.23337255,10.6364262 L2.22772549,10.5188993 L2.20796078,10.2064496 L2.18254902,9.76214052 L2.12607843,8.73879625 L2.10066667,8.2887541 L2.08090196,7.9619719 L2.0752549,7.82437939 L2.03290196,7.82437939 L1.56419608,10.6364262" id="Fill-31" fill="#FFFFFF"></path>
            <path d="M1.56419608,10.6364262 L0.796196078,10.6364262 L1.43713725,6.87269789 L2.77266667,6.87269789 L2.89972549,9.1057096 L3.82301961,6.87269789 L5.21788235,6.87269789 L4.56278431,10.6364262 L3.79478431,10.6364262 L4.28043137,7.82437939 L4.24937255,7.82437939 L3.10019608,10.6364262 L2.23337255,10.6364262 L2.22772549,10.5188993 L2.20796078,10.2064496 L2.18254902,9.76214052 L2.12607843,8.73879625 L2.10066667,8.2887541 L2.08090196,7.9619719 L2.0752549,7.82437939 L2.03290196,7.82437939 L1.56419608,10.6364262" id="Stroke-32" stroke="#FFFFFF" stroke-width="0.215"></path>
            <path d="M21.5181176,10.0000609 L21.4023529,10.6364262 L20.6936471,10.6364262 L20.6992941,10.5188993 L20.7021176,10.4157049 L20.7021176,10.3383091 L20.7077255,10.303911 L20.6710196,10.3468689 L20.6286667,10.3899063 L20.5778824,10.4300375 L20.5213725,10.4701686 L20.4621176,10.5074333 L20.3943137,10.5418314 L20.3237255,10.5762295 L20.2531373,10.6048946 L20.176902,10.6278267 L20.0978824,10.6507588 L20.0187843,10.6650913 L19.9397255,10.6765176 L19.8578431,10.6822904 L19.7787843,10.6851569 L19.702549,10.6765176 L19.6263137,10.6650913 L19.5246667,10.6392927 L19.4343137,10.6106276 L19.3552549,10.573363 L19.2818431,10.5303653 L19.2197255,10.4845012 L19.1660784,10.432904 L19.120902,10.3784403 L19.0813725,10.3211101 L19.0474902,10.2609133 L19.0220784,10.1978103 L18.9994902,10.1347869 L18.9853725,10.0717237 L18.9740784,10.0057939 L18.9656078,9.93986417 L18.9599608,9.87680094 L18.9599608,9.8137377 L18.9656078,9.70194379 L18.982549,9.5958829 L19.0079608,9.49555504 L19.0446667,9.39809368 L19.0870196,9.30636534 L19.1406667,9.22323653 L19.1999608,9.14297424 L19.264902,9.07131148 L19.3383137,9.00538173 L19.414549,8.94518501 L19.4964314,8.89072131 L19.5839608,8.84485714 L19.6714902,8.804726 L19.7646667,8.77319438 L19.8578431,8.74739578 L19.9538431,8.73019672 L19.9594902,8.73019672 L19.9736078,8.72733021 L19.9933725,8.7244637 L20.0216078,8.72159719 L20.0583137,8.71586417 L20.0978824,8.71299766 L20.1401961,8.70726464 L20.1853725,8.70153162 L20.2334118,8.69579859 L20.2841961,8.69006557 L20.3321961,8.68719906 L20.3801961,8.68146604 L20.4253725,8.67859953 L20.4649412,8.67573302 L20.5044314,8.67286651 L20.6032549,8.67286651 L20.6710196,8.67573302 L20.7359608,8.67859953 L20.7980784,8.67859953 L20.8517255,8.68146604 L20.896902,8.68433255 L20.9223529,8.68719906 L20.9336471,8.68719906 L20.9392549,8.66713349 L20.9477255,8.6155363 L20.9561961,8.55533958 L20.9618431,8.50087588 L20.950549,8.43781265 L20.928,8.38048244 L20.8912549,8.32888525 L20.848902,8.28588759 L20.7980784,8.24862295 L20.7387843,8.22282436 L20.6766667,8.20562529 L20.608902,8.19989227 L20.5298431,8.19702576 L20.4451373,8.19415925 L20.3576078,8.19415925 L20.2672549,8.19702576 L20.1740784,8.20275878 L19.9933725,8.21995785 L19.9058431,8.23142389 L19.8211373,8.24288993 L19.7392549,8.25722248 L19.6658431,8.27155504 L19.5980784,8.28588759 L19.5359608,8.30308665 L19.4851373,8.32028571 L19.4456078,8.34035129 L19.414549,8.35755035 L19.6121961,7.66672131 L19.6743137,7.64092272 L19.7392549,7.61799063 L19.8041961,7.59792506 L19.8719608,7.58359251 L19.942549,7.56925995 L20.0131373,7.55779391 L20.086549,7.54632787 L20.1627843,7.54059485 L20.2418431,7.53486183 L20.3237255,7.53199532 L20.4056078,7.52912881 L20.6710196,7.52912881 L20.7670196,7.53199532 L20.8630196,7.53486183 L20.9420784,7.54059485 L21.0267843,7.5549274 L21.1143137,7.57499297 L21.2046667,7.60079157 L21.2921961,7.6351897 L21.3797255,7.67532084 L21.4644314,7.72405152 L21.5434902,7.77851522 L21.6140784,7.84157845 L21.6790196,7.91037471 L21.7354902,7.98777049 L21.7778431,8.07376581 L21.808902,8.16549415 L21.8286667,8.2629555 L21.8286667,8.3718829 L21.814549,8.48654333 L21.5181176,10.0000609" id="Fill-33" fill="#FFFFFF"></path>
            <path id="Fill-34" fill="#FFFFFF" d="M21.4421073,10.6564918 L21.4985801,10.6392927 L21.8853725,10.0029274 L21.772165,9.99719438 L21.3853725,10.6335597 L21.4421073,10.6163208 L21.4421073,10.6564918 L21.4891461,10.6536253 L21.4985801,10.6392927 L21.4421073,10.6564918"></path>
            <path id="Fill-35" fill="#FFFFFF" d="M20.6766667,10.8665686 L20.6936471,11.1163208 L21.4023529,11.1163208 L21.4023529,10.6163208 L20.6936471,10.6163208 L20.710549,10.8665686 L20.6766667,10.8665686 L20.6738431,11.1163208 L20.6936471,11.1163208 L20.6766667,10.8665686"></path>
            <path id="Fill-36" fill="#FFFFFF" d="M21.1766667,10.3257783 L20.8958507,10.292445 L20.7704167,10.3591116 L20.7391667,10.4716116 L20.7391667,10.6216116 L20.6766667,10.792445 L21.0516667,10.792445 L21.1141667,10.6216116 L21.1766667,10.4716116 L21.1454167,10.3591116 L21.1454167,10.3257783 L20.8646007,10.292445 L21.1766667,10.3257783"></path>
            <path id="Fill-37" fill="#FFFFFF" d="M19.6234902,10.7679694 L19.6234902,10.7679694 L19.702549,10.7819555 L19.7787843,10.792445 L19.8578431,10.7889485 L19.9397255,10.7819555 L20.0216078,10.7679694 L20.1007059,10.7504869 L20.1797255,10.7224663 L20.2587843,10.6945429 L20.3293725,10.6595778 L20.4027843,10.6176198 L20.470549,10.5756617 L20.5891373,10.4777597 L20.6399608,10.4288086 L20.6851373,10.3728645 L20.7218431,10.320417 L20.6936471,10.292445 L20.656902,10.3448925 L20.6173725,10.3938436 L20.566549,10.4427946 L20.512902,10.4917457 L20.4536471,10.5337037 L20.3858431,10.5756617 L20.3180784,10.6176198 L20.2474902,10.6525848 L20.1740784,10.6805569 L20.0950196,10.7085289 L20.0159608,10.7260114 L19.9397255,10.7399974 L19.8578431,10.7469904 L19.7787843,10.7504869 L19.702549,10.7399974 L19.6291373,10.7260114 L19.6234902,10.7679694"></path>
            <path d="M18.9401961,9.8137377 L18.9401961,9.8137377 L18.9430196,9.87680094 L18.9486667,9.93986417 L18.9571373,10.0086604 L18.9684314,10.0745902 L18.982549,10.1376534 L19.0051373,10.2035831 L19.030549,10.2695129 L19.0672549,10.3297096 L19.1067843,10.3899063 L19.1519608,10.44437 L19.2084314,10.4988337 L19.2733725,10.5446979 L19.3467843,10.5905621 L19.4286667,10.6278267 L19.5218431,10.6564918 L19.6234902,10.6822904 L19.6291373,10.6478923 L19.5274902,10.6220937 L19.4399608,10.5934286 L19.3637255,10.5561241 L19.2903137,10.5160328 L19.2310196,10.4701686 L19.1801961,10.4214379 L19.1350196,10.3669742 L19.0954902,10.3125105 L19.0644314,10.2523138 L19.0390196,10.1921171 L19.0164314,10.1319204 L19.0023137,10.0688571 L18.9910196,10.0029274 L18.982549,9.93986417 L18.976902,9.87680094 L18.9797255,9.8137377 L18.9401961,9.8137377" id="Fill-38" fill="#FFFFFF"></path>
            <path d="M19.9538431,8.71299766 L19.9538431,8.71299766 L19.8550196,8.73019672 L19.7590196,8.75599532 L19.6658431,8.78752693 L19.5754902,8.82765808 L19.4879608,8.87352225 L19.4032549,8.93085246 L19.3270196,8.99104918 L19.2536078,9.05984543 L19.1858431,9.1315082 L19.126549,9.21177049 L19.0700784,9.29776581 L19.0277255,9.39236066 L18.9910196,9.48982201 L18.9656078,9.59301639 L18.9486667,9.70194379 L18.9401961,9.8137377 L18.9797255,9.8137377 L18.982549,9.70194379 L18.9994902,9.59874941 L19.024902,9.50128806 L19.0616078,9.4038267 L19.1039608,9.31496487 L19.1547843,9.23470258 L19.2140784,9.15444028 L19.2761961,9.08277752 L19.3496078,9.01971429 L19.4258431,8.95951756 L19.504902,8.90792037 L19.5924314,8.86205621 L19.6771373,8.82192506 L19.7703137,8.79039344 L19.8606667,8.76459485 L19.9538431,8.74739578 L19.9538431,8.71299766" id="Fill-39" fill="#FFFFFF"></path>
            <path id="Fill-40" fill="#FFFFFF" d="M20.5354902,8.65280094 L20.5044314,8.65280094 L20.4649412,8.68310397 L20.4253725,8.69825548 L20.3801961,8.713407 L20.3321961,8.74371003 L20.2841961,8.75886154 L20.2334118,8.78916457 L20.1853725,8.8194676 L20.1401961,8.84977063 L20.0978824,8.88007366 L20.0583137,8.89522518 L20.0216078,8.92552821 L19.9933725,8.94067972 L19.9707843,8.95583124 L19.9594902,8.97098275 L19.9538431,8.97098275 L19.9538431,9.15280094 L19.9594902,9.15280094 L19.9764314,9.13764942 L19.9933725,9.12249791 L20.0216078,9.10734639 L20.0583137,9.07704336 L20.0978824,9.06189185 L20.1401961,9.03158882 L20.1853725,9.00128579 L20.2334118,8.97098275 L20.2841961,8.94067972 L20.3321961,8.92552821 L20.3801961,8.89522518 L20.4253725,8.88007366 L20.4649412,8.86492215 L20.5354902,8.86492215 L20.5354902,8.65280094"></path>
            <path id="Fill-41" fill="#FFFFFF" d="M20.9946739,8.94227462 L21.0151293,8.81069567 L21.0015238,8.81069567 L20.9708643,8.78437988 L20.9164426,8.75806409 L20.8518167,8.70543252 L20.6987555,8.70543252 L20.6171228,8.65280094 L20.5354902,8.65280094 L20.5354902,9.02122199 L20.6987555,9.02122199 L20.7769868,9.07385357 L20.9164426,9.07385357 L20.9708643,9.10016936 L21.0015238,9.12648515 L21.0151293,9.12648515 L21.0354902,8.9949062 L21.0151293,9.12648515 L21.0320888,9.15280094 L21.0354902,8.9949062 L20.9946739,8.94227462"></path>
            <path id="Fill-42" fill="#FFFFFF" d="M21.134058,8.50087588 L21.1123188,8.50087588 L21.0905797,8.64481527 L21.0256643,8.79633042 L20.9604469,8.93269406 L20.9166667,8.98572436 L21.1775362,9.00087588 L21.2210145,8.94784558 L21.2862319,8.81148194 L21.3514493,8.64481527 L21.4166667,8.50087588 L21.134058,8.50087588"></path>
            <path id="Fill-43" fill="#FFFFFF" d="M20.608902,8.23786241 L20.608902,8.2423267 L20.6966882,8.24679098 L20.7768409,8.2735767 L20.8531768,8.31375527 L20.9180623,8.3673267 L20.9714974,8.4298267 L21.0172989,8.50571956 L21.0478863,8.5860767 L21.0631004,8.6798267 L21.108902,8.6798267 L21.0936348,8.57714813 L21.0631004,8.47893384 L21.0096653,8.39411241 L20.9485966,8.32268384 L20.8761305,8.26018384 L20.7921081,8.22000527 L20.7043218,8.19321956 L20.608902,8.1798267 L20.608902,8.23786241"></path>
            <path id="Fill-44" fill="#FFFFFF" d="M19.3976078,8.63061542 L19.4258431,8.67409368 L19.4540784,8.63786179 L19.4907843,8.58713716 L19.5387843,8.54365889 L19.600902,8.50018063 L19.6686667,8.46394875 L19.7420784,8.42771687 L19.8239608,8.39148498 L19.9058431,8.36249947 L19.9933725,8.33351397 L20.0837255,8.31177484 L20.1740784,8.29003571 L20.2672549,8.27554295 L20.5298431,8.27554295 L20.608902,8.28278933 L20.608902,8.19583281 L20.5298431,8.18858643 L20.4451373,8.17409368 L20.3576078,8.17409368 L20.2672549,8.18858643 L20.1740784,8.20307918 L20.0837255,8.22481831 L19.9933725,8.24655744 L19.8183137,8.30452846 L19.7364314,8.34076034 L19.6630196,8.37699223 L19.5952549,8.41322411 L19.5331373,8.45670237 L19.4794902,8.50018063 L19.4371373,8.55090527 L19.4032549,8.60162991 L19.4314902,8.64510817 L19.3976078,8.63061542"></path>
            <path id="Fill-45" fill="#FFFFFF" d="M19.8488274,7.64952225 L19.8244371,7.6638548 L19.3976078,8.35468384 L19.4707786,8.36041686 L19.8976078,7.66958782 L19.8732176,7.68392037 L19.8488274,7.64952225 L19.8305347,7.65238876 L19.8244371,7.6638548 L19.8488274,7.64952225"></path>
            <path id="Fill-46" fill="#FFFFFF" d="M20.8630196,7.5336534 L20.8630196,7.5336534 L20.7670196,7.51725995 L20.6710196,7.50906323 L20.4056078,7.50906323 L20.3237255,7.52545667 L20.2418431,7.5336534 L20.1627843,7.55004684 L20.086549,7.56644028 L20.0103137,7.59922717 L19.9397255,7.63201405 L19.8691373,7.67299766 L19.8013725,7.71398126 L19.7336078,7.77135831 L19.6686667,7.83693208 L19.606549,7.91070258 L19.6178431,8.00906323 L19.6799608,7.93529274 L19.744902,7.86971897 L19.8070196,7.81234192 L19.8747843,7.77135831 L19.9453725,7.73037471 L20.086549,7.66480094 L20.1627843,7.64840749 L20.2418431,7.63201405 L20.3237255,7.62381733 L20.6710196,7.62381733 L20.7670196,7.63201405 L20.8630196,7.63201405 L20.8630196,7.5336534"></path>
            <path d="M21.8314902,8.48940984 L21.8314902,8.48940984 L21.8456078,8.3718829 L21.8456078,8.2629555 L21.8258431,8.16262763 L21.7947843,8.06803279 L21.7496471,7.97917096 L21.6931373,7.89890867 L21.6253725,7.8272459 L21.5547843,7.76418267 L21.472902,7.70971897 L21.3881961,7.65812178 L21.2978431,7.61799063 L21.2103137,7.58359251 L21.1171373,7.55779391 L21.0296078,7.53772834 L20.9420784,7.52339578 L20.8630196,7.51766276 L20.8630196,7.55206089 L20.9420784,7.55779391 L21.0239608,7.57212646 L21.1114902,7.59219204 L21.1990196,7.61799063 L21.2865882,7.65238876 L21.3712549,7.69251991 L21.4559608,7.73838407 L21.5321961,7.79284778 L21.6027843,7.85591101 L21.664902,7.92184075 L21.7213725,7.99637002 L21.760902,8.07949883 L21.7919608,8.16836066 L21.8117255,8.2629555 L21.8117255,8.3718829 L21.7976078,8.48367681 L21.8314902,8.48940984" id="Fill-47" fill="#FFFFFF"></path>
            <path id="Fill-48" fill="#FFFFFF" d="M21.5524193,10.0029274 L21.5524193,10.0029274 L22.0011373,8.48940984 L21.9498552,8.48367681 L21.5011373,9.99719438 L21.5524193,10.0029274"></path>
            <path d="M20.8347843,9.25190164 L20.8291373,9.23470258 L20.8178824,9.22037002 L20.7980784,9.21177049 L20.7698431,9.20317096 L20.7387843,9.20030445 L20.7021176,9.19743794 L20.6597255,9.19743794 L20.6173725,9.20030445 L20.5722353,9.20603747 L20.5270196,9.21177049 L20.4818431,9.21750351 L20.4394902,9.22323653 L20.3971373,9.23183607 L20.3604314,9.23756909 L20.3237255,9.24616862 L20.2954902,9.25190164 L20.2757255,9.25476815 L20.2531373,9.26336768 L20.2249412,9.27196721 L20.1938431,9.28343326 L20.1571373,9.30063232 L20.0837255,9.33789696 L20.0103137,9.38949415 L19.9736078,9.42102576 L19.942549,9.45255738 L19.9114902,9.48982201 L19.8860784,9.52995316 L19.8663137,9.57295082 L19.8493725,9.61881499 L19.840902,9.66754567 L19.8380784,9.76500703 L19.8521961,9.84240281 L19.8747843,9.89969321 L19.9086667,9.94273068 L19.9510196,9.97139578 L19.9990196,9.98859485 L20.0470196,9.99719438 L20.0950196,10.0000609 L20.1797255,9.99719438 L20.2587843,9.98859485 L20.3321961,9.9742623 L20.3971373,9.95419672 L20.4592941,9.93126464 L20.512902,9.90546604 L20.5637255,9.87680094 L20.608902,9.84240281 L20.6484314,9.81083138 L20.6823137,9.77360656 L20.7133725,9.73920843 L20.7387843,9.70194379 L20.758549,9.66754567 L20.7726667,9.63314754 L20.7839608,9.59874941 L20.7924314,9.5672178 L20.8037647,9.4869555 L20.8178824,9.4038267 L20.8291373,9.3235644 L20.8347843,9.25190164" id="Fill-49" fill="#F1AC3D"></path>
            <path id="Fill-50" fill="#FFFFFF" d="M26.6512549,10.3567354 L26.656902,10.2715502 L26.6794902,10.1715502 L26.7190196,10.0826613 L26.7670196,10.0048835 L26.8263137,9.94192055 L26.8940784,9.8974761 L26.9674902,9.86784647 L27.046549,9.85673536 L27.1256078,9.86784647 L27.1990196,9.8974761 L27.2667843,9.94192055 L27.3260784,10.0048835 L27.3740784,10.0826613 L27.4136078,10.1715502 L27.4361961,10.2715502 L27.4418431,10.3567354 L27.3571373,10.3567354 L27.3543137,10.2900687 L27.3373725,10.2085872 L27.3091373,10.1345131 L27.2724314,10.0715502 L27.2272549,10.0196983 L27.1736078,9.98266129 L27.1114902,9.95673536 L27.046549,9.94932796 L26.9816078,9.95673536 L26.9194902,9.98266129 L26.8658431,10.0196983 L26.8206667,10.0715502 L26.7839608,10.1345131 L26.7557255,10.2085872 L26.7387843,10.2900687 L26.7331373,10.3567354 L26.6512549,10.3567354"></path>
            <path id="Fill-51" fill="#FFFFFF" d="M26.9053725,10.5717237 L26.9053725,10.0717237 L27.1672773,10.0717237 L27.2244202,10.080057 L27.2768011,10.0967237 L27.3148964,10.1217237 L27.3482297,10.155057 L27.3720392,10.205057 L27.3910868,10.255057 L27.4006106,10.3133903 L27.4053725,10.3717237 L27.4006106,10.4467237 L27.3910868,10.505057 L27.3768011,10.555057 L27.3672773,10.5717237 L27.1672773,10.5717237 L27.1863249,10.5633903 L27.2196583,10.555057 L27.2482297,10.5383903 L27.2720392,10.5217237 L27.2910868,10.4967237 L27.3006106,10.4717237 L27.3101345,10.430057 L27.3101345,10.3717237 L27.3053725,10.330057 L27.2958487,10.2967237 L27.2672773,10.2633903 L27.2434678,10.255057 L27.2196583,10.2467237 L27.0244202,10.2467237 L27.0244202,10.5717237 L26.9053725,10.5717237"></path>
            <path id="Fill-52" fill="#FFFFFF" d="M26.6512549,10.2437143 L26.6484314,10.2641224 L26.656902,10.3627619 L26.6794902,10.4545986 L26.7190196,10.5362313 L26.7670196,10.6042585 L26.8263137,10.6620816 L26.8940784,10.7062993 L26.9674902,10.7335102 L27.046549,10.7437143 L27.1256078,10.7335102 L27.1990196,10.7062993 L27.2667843,10.6620816 L27.3260784,10.6042585 L27.3740784,10.5362313 L27.4136078,10.4545986 L27.4361961,10.3627619 L27.4446667,10.2641224 L27.4418431,10.2437143 L27.3571373,10.2437143 L27.3599608,10.2641224 L27.3543137,10.3457551 L27.3373725,10.420585 L27.3091373,10.4852109 L27.2724314,10.5429868 L27.2272549,10.5906531 L27.1736078,10.628068 L27.1114902,10.6518776 L27.046549,10.6586803 L26.9816078,10.6518776 L26.9194902,10.628068 L26.8658431,10.5906531 L26.8206667,10.5429868 L26.7839608,10.4852109 L26.7557255,10.420585 L26.7387843,10.3457551 L26.7331373,10.2641224 L26.7331373,10.2437143 L26.6512549,10.2437143"></path>
            <path id="Fill-53" fill="#FFFFFF" d="M26.9053725,10.2437143 L26.9053725,10.7437143 L27.0303725,10.7437143 L27.0303725,10.3338782 L27.1553725,10.3338782 L27.3053725,10.7437143 L27.4053725,10.7437143 L27.2553725,10.3338782 L27.2903725,10.3338782 L27.3253725,10.3174848 L27.355442,10.3010913 L27.3803725,10.2683044 L27.3903725,10.2437143 L27.1803725,10.2437143 L27.1553725,10.251911 L27.0303725,10.251911 L27.0303725,10.2437143 L26.9053725,10.2437143"></path>
            <path d="M26.6484314,10.2609133 L26.6484314,10.2609133 L26.656902,10.1777845 L26.6794902,10.1003888 L26.7190196,10.0315925 L26.7670196,9.97139578 L26.8263137,9.92266511 L26.8940784,9.88826698 L26.9674902,9.86533489 L27.046549,9.85673536 L27.1256078,9.86533489 L27.1990196,9.88826698 L27.2667843,9.92266511 L27.3260784,9.97139578 L27.3740784,10.0315925 L27.4136078,10.1003888 L27.4361961,10.1777845 L27.4446667,10.2609133 L27.4361961,10.3440422 L27.4136078,10.4214379 L27.3740784,10.4902342 L27.3260784,10.5475644 L27.2667843,10.5962951 L27.1990196,10.6335597 L27.1256078,10.6564918 L27.046549,10.6650913 L26.9674902,10.6564918 L26.8940784,10.6335597 L26.8263137,10.5962951 L26.7670196,10.5475644 L26.7190196,10.4902342 L26.6794902,10.4214379 L26.656902,10.3440422 L26.6484314,10.2609133 M26.9759608,10.4185714 L26.9053725,10.4185714 L26.9053725,10.0717237 L27.0606667,10.0717237 L27.094549,10.0745902 L27.1256078,10.0803232 L27.1481961,10.0889227 L27.1679608,10.1003888 L27.1820784,10.1175878 L27.1933725,10.1347869 L27.1990196,10.1548525 L27.2018431,10.174918 L27.1990196,10.2007166 L27.1933725,10.2207822 L27.184902,10.2379813 L27.1736078,10.2523138 L27.1595294,10.2637799 L27.142549,10.2695129 L27.1227843,10.2752459 L27.1030196,10.2752459 L27.1877255,10.4185714 L27.1312549,10.4185714 L27.046549,10.2752459 L26.9759608,10.2752459 L26.9759608,10.4185714 M27.046549,10.2465808 L27.046549,10.2465808 L27.0719608,10.2408478 L27.0917255,10.2379813 L27.1086667,10.2322482 L27.1227843,10.2265152 L27.1340784,10.2179157 L27.1397255,10.2093162 L27.1453725,10.1949836 L27.1453725,10.174918 L27.142549,10.1605855 L27.136902,10.1491194 L27.1199608,10.1376534 L27.1058431,10.1347869 L27.0917255,10.1319204 L26.9759608,10.1319204 L26.9759608,10.2465808 L27.046549,10.2465808 M27.046549,10.5934286 L27.046549,10.5934286 L27.1114902,10.5876956 L27.1736078,10.56763 L27.2272549,10.5360984 L27.2724314,10.4959274 L27.3091373,10.4472365 L27.3373725,10.3927728 L27.3543137,10.3297096 L27.3599608,10.2609133 L27.3543137,10.1921171 L27.3373725,10.1290539 L27.3091373,10.0717237 L27.2724314,10.022993 L27.2272549,9.98286183 L27.1736078,9.95419672 L27.1114902,9.93413115 L27.046549,9.92839813 L26.9816078,9.93413115 L26.9194902,9.95419672 L26.8658431,9.98286183 L26.8206667,10.022993 L26.7839608,10.0717237 L26.7557255,10.1290539 L26.7387843,10.1921171 L26.7331373,10.2609133 L26.7387843,10.3297096 L26.7557255,10.3927728 L26.7839608,10.4472365 L26.8206667,10.4959274 L26.8658431,10.5360984 L26.9194902,10.56763 L26.9816078,10.5876956 L27.046549,10.5934286" id="Stroke-54" stroke="#FFFFFF" stroke-width="0.215"></path>
            <path d="M21.7298431,10.6364262 L22.5260784,10.6364262 L22.8112941,9.00538173 L22.822549,8.9423185 L22.8564314,8.81619204 L22.8790196,8.75312881 L22.9072549,8.69006557 L22.9411373,8.62986885 L22.9778431,8.57253864 L23.0230196,8.51807494 L23.0738431,8.46934426 L23.1303137,8.42348009 L23.1952549,8.38048244 L23.2686667,8.34608431 L23.350549,8.3174192 L23.440902,8.29448712 L23.5397255,8.27728806 L23.6498431,8.27155504 L23.7204314,8.27155504 L23.8474902,7.53486183 L23.7684314,7.54059485 L23.6921961,7.54919438 L23.6216078,7.56352693 L23.5538431,7.58359251 L23.4917255,7.60652459 L23.4324314,7.6351897 L23.3759608,7.66672131 L23.3223137,7.70111944 L23.2714902,7.74125059 L23.2234902,7.78138173 L23.1331373,7.87311007 L23.0907843,7.92184075 L23.0484706,7.97630445 L23.0060784,8.02790164 L22.966549,8.08523185 L23.0512941,7.56639344 L22.2578431,7.56639344 L21.7298431,10.6364262" id="Fill-55" fill="#FFFFFF"></path>
            <path d="M21.7298431,10.6364262 L22.5260784,10.6364262 L22.8112941,9.00538173 L22.822549,8.9423185 L22.8564314,8.81619204 L22.8790196,8.75312881 L22.9072549,8.69006557 L22.9411373,8.62986885 L22.9778431,8.57253864 L23.0230196,8.51807494 L23.0738431,8.46934426 L23.1303137,8.42348009 L23.1952549,8.38048244 L23.2686667,8.34608431 L23.350549,8.3174192 L23.440902,8.29448712 L23.5397255,8.27728806 L23.6498431,8.27155504 L23.7204314,8.27155504 L23.8474902,7.53486183 L23.7684314,7.54059485 L23.6921961,7.54919438 L23.6216078,7.56352693 L23.5538431,7.58359251 L23.4917255,7.60652459 L23.4324314,7.6351897 L23.3759608,7.66672131 L23.3223137,7.70111944 L23.2714902,7.74125059 L23.2234902,7.78138173 L23.1331373,7.87311007 L23.0907843,7.92184075 L23.0484706,7.97630445 L23.0060784,8.02790164 L22.966549,8.08523185 L23.0512941,7.56639344 L22.2578431,7.56639344 L21.7298431,10.6364262" id="Stroke-56" stroke="#FFFFFF" stroke-width="0.215"></path>
            <path d="M14.2531373,10.6364262 L15.0634902,10.6364262 L15.334549,9.00538173 L15.3458431,8.9423185 L15.3740784,8.82192506 L15.3938431,8.76459485 L15.4164314,8.70726464 L15.4446667,8.65280094 L15.478549,8.60120375 L15.5180784,8.55247307 L15.5632549,8.50947541 L15.6140784,8.46647775 L15.6761961,8.43207963 L15.7439608,8.40054801 L15.8230196,8.37474941 L15.910549,8.35181733 L16.006549,8.33748478 L16.1166667,8.32888525 L16.1251373,8.32888525 L16.1364314,8.33175176 L16.150549,8.33461827 L16.1646667,8.33461827 L16.1787843,8.33748478 L16.1900784,8.34035129 L16.198549,8.3432178 L16.2013725,8.3432178 L16.2126667,8.29735363 L16.2239608,8.24575644 L16.2380784,8.18269321 L16.2578431,8.10816393 L16.2776078,8.02790164 L16.3284314,7.86737705 L16.3510196,7.81291335 L16.4074902,7.70398595 L16.4357255,7.65525527 L16.4611373,7.61225761 L16.480902,7.57785948 L16.4950196,7.55779391 L16.5006667,7.54919438 L16.4978431,7.54919438 L16.486549,7.54632787 L16.4724314,7.54346136 L16.4526667,7.54059485 L16.432902,7.54059485 L16.4103137,7.53772834 L16.390549,7.53486183 L16.3707843,7.53486183 L16.2832549,7.54059485 L16.2041961,7.54919438 L16.1307843,7.56352693 L16.0630196,7.580726 L15.9980784,7.60365808 L15.9387843,7.63232319 L15.8851373,7.66098829 L15.8343137,7.69538642 L15.7863137,7.73265105 L15.7411373,7.77564871 L15.6987843,7.81864637 L15.6140784,7.91610773 L15.574549,7.97057143 L15.4898431,8.08523185 L15.5914902,7.56639344 L14.7811373,7.56639344 L14.2531373,10.6364262" id="Fill-57" fill="#FFFFFF"></path>
            <path d="M14.2531373,10.6364262 L15.0634902,10.6364262 L15.334549,9.00538173 L15.3458431,8.9423185 L15.3740784,8.82192506 L15.3938431,8.76459485 L15.4164314,8.70726464 L15.4446667,8.65280094 L15.478549,8.60120375 L15.5180784,8.55247307 L15.5632549,8.50947541 L15.6140784,8.46647775 L15.6761961,8.43207963 L15.7439608,8.40054801 L15.8230196,8.37474941 L15.910549,8.35181733 L16.006549,8.33748478 L16.1166667,8.32888525 L16.1251373,8.32888525 L16.1364314,8.33175176 L16.150549,8.33461827 L16.1646667,8.33461827 L16.1787843,8.33748478 L16.1900784,8.34035129 L16.198549,8.3432178 L16.2013725,8.3432178 L16.2126667,8.29735363 L16.2239608,8.24575644 L16.2380784,8.18269321 L16.2578431,8.10816393 L16.2776078,8.02790164 L16.3284314,7.86737705 L16.3510196,7.81291335 L16.4074902,7.70398595 L16.4357255,7.65525527 L16.4611373,7.61225761 L16.480902,7.57785948 L16.4950196,7.55779391 L16.5006667,7.54919438 L16.4978431,7.54919438 L16.486549,7.54632787 L16.4724314,7.54346136 L16.4526667,7.54059485 L16.432902,7.54059485 L16.4103137,7.53772834 L16.390549,7.53486183 L16.3707843,7.53486183 L16.2832549,7.54059485 L16.2041961,7.54919438 L16.1307843,7.56352693 L16.0630196,7.580726 L15.9980784,7.60365808 L15.9387843,7.63232319 L15.8851373,7.66098829 L15.8343137,7.69538642 L15.7863137,7.73265105 L15.7411373,7.77564871 L15.6987843,7.81864637 L15.6140784,7.91610773 L15.574549,7.97057143 L15.4898431,8.08523185 L15.5914902,7.56639344 L14.7811373,7.56639344 L14.2531373,10.6364262" id="Stroke-58" stroke="#FFFFFF" stroke-width="0.215"></path>
            <path id="Fill-59" fill="#F1AC3D" d="M26.656902,13.8338126 L26.656902,13.8157946 L26.6794902,13.6986775 L26.7190196,13.5950739 L26.7670196,13.5049838 L26.8263137,13.4329117 L26.8940784,13.3788577 L26.9674902,13.3473262 L27.046549,13.3338126 L27.1256078,13.3473262 L27.1990196,13.3788577 L27.2667843,13.4329117 L27.3260784,13.5049838 L27.3740784,13.5950739 L27.4136078,13.6986775 L27.4361961,13.8157946 L27.4361961,13.8338126 L27.3543137,13.8338126 L27.3373725,13.7392181 L27.3091373,13.6536325 L27.2724314,13.5770559 L27.2272549,13.5139928 L27.1736078,13.4644433 L27.1114902,13.4329117 L27.046549,13.4239027 L26.9816078,13.4329117 L26.9194902,13.4644433 L26.8658431,13.5139928 L26.8206667,13.5770559 L26.7839608,13.6536325 L26.7557255,13.7392181 L26.7387843,13.8338126 L26.656902,13.8338126"></path>
            <path id="Fill-60" fill="#F1AC3D" d="M26.9053725,14.0516674 L26.9053725,13.5516674 L27.2244202,13.5516674 L27.2768011,13.5802389 L27.3148964,13.6088103 L27.3482297,13.6659532 L27.3720392,13.7373817 L27.3910868,13.823096 L27.4006106,13.923096 L27.4053725,14.0516674 L27.3101345,14.0516674 L27.3101345,13.9802389 L27.3053725,13.9088103 L27.2958487,13.8516674 L27.2672773,13.7945246 L27.2434678,13.7802389 L27.2196583,13.7659532 L27.0244202,13.7659532 L27.0244202,14.0516674 L26.9053725,14.0516674"></path>
            <path id="Fill-61" fill="#F1AC3D" d="M26.6484314,14.1519953 L26.6953064,13.6519953 L27.1484314,13.6519953 L27.1484314,13.6747226 L27.1171814,14.1519953 L26.6484314,14.1519953"></path>
            <path id="Fill-62" fill="#F1AC3D" d="M26.9053725,14.1519953 L26.9053725,13.6519953 L27.0244202,13.6519953 L27.0244202,14.1065408 L27.1434678,14.1065408 L27.1863249,14.0610862 L27.2196583,14.038359 L27.2482297,13.9929044 L27.2720392,13.9474499 L27.2910868,13.879268 L27.3006106,13.8110862 L27.3101345,13.6974499 L27.3101345,13.6519953 L27.4053725,13.6519953 L27.4006106,13.8110862 L27.3910868,13.9474499 L27.3768011,14.0610862 L27.3577535,14.1519953 L26.9053725,14.1519953"></path>
            <path id="Fill-63" fill="#F1AC3D" d="M27.3855637,14.1519953 L27.3543137,13.6747226 L27.3543137,13.6519953 L27.8074387,13.6519953 L27.8543137,14.1519953 L27.3855637,14.1519953"></path>
            <path id="Fill-64" fill="#F1AC3D" d="M26.6484314,13.7150585 L26.6484314,13.7254752 L26.656902,13.8261697 L26.6794902,13.9199197 L26.7190196,14.003253 L26.7670196,14.0761697 L26.8263137,14.1351974 L26.8940784,14.1768641 L26.9674902,14.2046419 L27.046549,14.2150585 L27.1256078,14.2046419 L27.1990196,14.1768641 L27.2667843,14.1351974 L27.3260784,14.0761697 L27.3740784,14.003253 L27.4136078,13.9199197 L27.4361961,13.8261697 L27.4446667,13.7254752 L27.4446667,13.7150585 L27.3599608,13.7150585 L27.3599608,13.7254752 L27.3543137,13.8088085 L27.3373725,13.8851974 L27.3091373,13.9511697 L27.2724314,14.0101974 L27.2272549,14.0588085 L27.1736078,14.097003 L27.1114902,14.1212603 L27.046549,14.128253 L26.9816078,14.1212603 L26.9194902,14.097003 L26.8658431,14.0588085 L26.8206667,14.0101974 L26.7839608,13.9511697 L26.7557255,13.8851974 L26.7387843,13.8088085 L26.7331373,13.7254752 L26.7331373,13.7150585 L26.6484314,13.7150585"></path>
            <path id="Fill-65" fill="#F1AC3D" d="M26.9053725,13.7150585 L26.9053725,14.2150585 L27.0303725,14.2150585 L27.0303725,13.7840241 L27.1553725,13.7840241 L27.3053725,14.2150585 L27.4053725,14.2150585 L27.2553725,13.7840241 L27.2903725,13.7840241 L27.3253725,13.7667827 L27.355442,13.7495413 L27.3803725,13.7150585 L26.9053725,13.7150585"></path>
        </g>
    </g>
</svg>